<svg xmlns="http://www.w3.org/2000/svg" width="62mm" height="88mm" viewBox="0 0 62 88"><g transform="matrix(.26458 0 0 .26458 -12.168 -219.96)"><rect width="233.576" height="331.844" x="46.368" y="831.723" rx="8.932" ry="8.935" style="fill:#fff;fill-opacity:1;stroke:gray;stroke-width:.75590552;stroke-linecap:butt;stroke-linejoin:miter;stroke-miterlimit:4;stroke-dasharray:none;stroke-opacity:1"/><path d="M58.676 892.448c0-.556-.031-.958-.031-1.515h3.557v-2.738c-2.252.073-4.69.24-6.798-.687-1.633-.893-2.083-2.972-1.754-4.68.282-1.93 1.357-3.641 2.76-4.96 1.826-1.947 4.154-3.26 6.585-4.318 2.482 1.075 4.861 2.432 6.71 4.43 1.666 1.56 2.775 3.764 2.741 6.073.036 1.666-1 3.426-2.707 3.79-1.91.527-3.845.434-5.806.352v2.738h3.365c0 .557.03.959.03 1.515-2.641-.019-5.799-.019-8.652 0M258.99 1102.841c0 .557-.03.959-.03 1.515h3.557v2.738c-2.252-.072-4.69-.24-6.798.687-1.633.893-2.083 2.972-1.754 4.681.282 1.928 1.357 3.64 2.76 4.96 1.826 1.946 4.154 3.26 6.585 4.317 2.482-1.075 4.861-2.432 6.71-4.43 1.665-1.56 2.775-3.764 2.74-6.072.037-1.667-.998-3.427-2.706-3.79-1.91-.528-3.845-.434-5.806-.353v-2.738h3.365c0-.556.03-.958.03-1.515a657 657 0 0 1-8.652 0M150.188 1025.991c0-1.669-.092-2.874-.092-4.543h10.672v-8.214c-6.756.217-14.068.717-20.395-2.062-4.898-2.679-6.25-8.916-5.262-14.043.845-5.784 4.072-10.921 8.28-14.878 5.478-5.84 12.463-9.781 19.756-12.953 7.444 3.225 14.583 7.296 20.13 13.29 4.996 4.68 8.325 11.293 8.222 18.218.109 4.998-2.998 10.28-8.121 11.37-5.732 1.583-11.534 1.302-17.418 1.058v8.214h10.095c0 1.669.093 2.874.093 4.543-7.926-.056-17.4-.056-25.96 0" style="fill:#000;stroke:none;stroke-width:.31496063"/><g aria-label="A" style="font-style:normal;font-variant:normal;font-weight:700;font-stretch:normal;font-size:3.77952766px;line-height:0%;font-family:&quot;Levenim MT&quot;;-inkscape-font-specification:&quot;Sans Bold&quot;;letter-spacing:0;word-spacing:0;fill:#000;fill-opacity:1;stroke:none;stroke-width:.31496063"><path d="M87.085 721.474H82.42l-1.843-4.858h-9.62l-1.923 4.858H64.37l9.09-23.582h4.553zm-8.192-9.234-3.126-8.096-3.142 8.096z" style="font-size:32.83158493px;line-height:1.25;stroke-width:.31496063" transform="scale(.8319 1.20205)"/></g><g aria-label="A" style="font-style:normal;font-variant:normal;font-weight:700;font-stretch:normal;font-size:3.77952743px;line-height:0%;font-family:&quot;Levenim MT&quot;;-inkscape-font-specification:&quot;Sans Bold&quot;;letter-spacing:0;word-spacing:0;fill:#000;fill-opacity:1;stroke:none;stroke-width:.31496063"><path d="M-305.159-938.425h-4.665l-1.843-4.858h-9.619l-1.924 4.858h-4.665l9.09-23.582h4.553zm-8.192-9.234-3.126-8.096-3.142 8.096z" style="font-size:32.83158493px;line-height:1.25;stroke-width:.31496063" transform="scale(-.8319 -1.20205)"/></g></g></svg>