<svg xmlns="http://www.w3.org/2000/svg" width="234.331" height="88mm" viewBox="0 0 234.331 332.598"><g transform="translate(0 -719.764)"><rect width="234.015" height="332.283" x=".157" y="719.922" rx="8.949" ry="8.947" style="fill:#fff;fill-opacity:1;stroke:gray;stroke-width:.31527546;stroke-linecap:butt;stroke-linejoin:miter;stroke-miterlimit:4;stroke-dasharray:none;stroke-opacity:1"/><path d="M12.685 780.866c0-.556-.03-.958-.03-1.514h3.557v-2.738c-2.252.072-4.69.239-6.799-.687-1.632-.893-2.083-2.972-1.753-4.681.281-1.928 1.357-3.64 2.76-4.96 1.826-1.946 4.154-3.26 6.585-4.317 2.481 1.075 4.86 2.432 6.71 4.43 1.665 1.56 2.775 3.764 2.74 6.072.037 1.666-.999 3.427-2.707 3.79-1.91.528-3.844.434-5.805.353v2.738h3.365c0 .556.03.958.03 1.514-2.641-.018-5.8-.018-8.653 0M213 991.26c0 .556-.03.958-.03 1.514h3.557v2.738c-2.252-.072-4.69-.239-6.799.688-1.632.893-2.083 2.972-1.753 4.68.281 1.929 1.357 3.641 2.76 4.96 1.825 1.946 4.154 3.26 6.585 4.318 2.481-1.076 4.86-2.433 6.71-4.43 1.665-1.56 2.775-3.765 2.74-6.073.037-1.666-.999-3.427-2.707-3.79-1.91-.528-3.844-.434-5.805-.353v-2.738h3.364c0-.556.031-.958.031-1.514-2.642.019-5.8.019-8.653 0" style="fill:#000;stroke:none;stroke-width:.31496048"/><g aria-label="A" style="font-style:normal;font-variant:normal;font-weight:700;font-stretch:normal;line-height:0%;font-family:&quot;Levenim MT&quot;;-inkscape-font-specification:&quot;Sans Bold&quot;;letter-spacing:0;word-spacing:0;fill:#000;fill-opacity:1;stroke:none"><path d="M100.973 91.811H86.16L80.308 76.39h-30.54l-6.107 15.422H28.849L57.71 16.94h14.455zm-26.01-29.317L65.038 36.79l-9.976 25.704z" style="font-size:104.24028015px;line-height:1.25" transform="matrix(.26202 0 0 .3786 0 720.91)"/></g><g aria-label="A" style="font-style:normal;font-variant:normal;font-weight:700;font-stretch:normal;line-height:0%;font-family:&quot;Levenim MT&quot;;-inkscape-font-specification:&quot;Sans Bold&quot;;letter-spacing:0;word-spacing:0;fill:#000;fill-opacity:1;stroke:none"><path d="M-793.356-780.632h-14.811l-5.854-15.422h-30.539l-6.108 15.422h-14.811l28.86-74.872h14.454zm-26.01-29.317-9.924-25.704-9.977 25.704z" style="font-size:104.24028015px;line-height:1.25" transform="matrix(-.26202 0 0 -.3786 0 720.91)"/></g><g transform="translate(0 720.91)scale(.31496)"><path d="M156.278 638.856c-46.373-25.362-59.17-84.4-49.82-132.936 8.003-54.76 38.553-103.39 78.406-140.842 51.862-55.278 118.002-92.594 187.054-122.618 70.485 30.532 138.084 69.07 190.603 125.804 47.306 44.299 78.824 106.908 77.856 172.46 1.026 47.315-28.386 97.315-76.9 107.64-54.274 14.976-109.205 12.319-193.628 12.19-84.424-.128-153.66 4.607-213.57-21.698z" style="fill:#fff;stroke:#000;stroke-width:15.19491673;stroke-miterlimit:4;stroke-dasharray:none"/><path d="M259.783 753.484v-39.502h87.954v-70.206c-57.83 1.861-116.587 6.457-170.745-17.373-41.921-22.975-53.489-76.458-45.037-120.427 7.235-49.607 34.851-93.66 70.878-127.59 46.882-50.075 106.672-83.88 169.093-111.08 63.717 27.66 124.825 62.571 172.302 113.967 42.763 40.13 71.255 96.849 70.38 156.232.927 42.863-25.661 88.158-69.517 97.51-49.062 13.569-98.462 11.161-148.828 9.068v69.899h87.954v39.502c-67.839-.477-224.434.137-224.434 0" style="fill:#000;stroke:none"/><path d="M506.597 585.003c0 115.959-46.438 209.97-103.721 209.97s-103.721-94.003-103.721-209.97c0-115.96 46.438-209.97 103.72-209.97 57.284 0 103.722 94.003 103.722 209.97" style="fill:#fff" transform="matrix(.61534 0 0 .61387 124.215 115.29)"/><path d="M399.272 602.227c-9.407 7.153-11.5 9.555-16.699 17.47-1.88 3.056-5.394 10.195-6.354 14.985s-1.679 11.737-1.676 15.417c.012 12.47 3.98 20.292 8.316 20.02 3.873-.444 8.801-4.483 16.27-13.656" style="fill-rule:evenodd;stroke:#000;stroke-width:.97019041pt" transform="matrix(.61534 0 0 .61387 124.215 115.29)"/><path d="M406.042 602.42c9.407 7.153 11.5 9.555 16.7 17.47 1.88 3.056 5.393 10.196 6.354 14.985.96 4.79 1.678 11.738 1.675 15.418-.012 12.47-3.98 20.292-8.315 20.02-3.873-.445-8.802-4.484-16.27-13.657" style="fill-rule:evenodd;stroke:#000;stroke-width:.97019041pt;stroke-linejoin:bevel" transform="matrix(.61534 0 0 .61387 124.215 115.29)"/><path d="M279.546 578.79c-18.556-18.05-31.531-49.372-33.332-83.192-1.964-37.275 17.678-74.288 47.081-95.388 32.96-23.197 88.061-29.612 122.33-27.881 23.208.016 74.904 12.05 93.154 25.64 32.01 23.275 49.177 56.31 50.366 93.962 1.76 37.821-14.17 66.628-33.677 84.606" style="fill:#fff;stroke:#000;stroke-width:12.12737942;stroke-linecap:round;stroke-linejoin:round" transform="matrix(.61534 0 0 .61387 124.215 115.29)"/><path d="M302.179 651.941c6.73 16.29 13.866 32.176 14.539 48.869-3.096 13.462-2.154 29.348 1.211 42.003 4.309 17.367 21.136 37.964 37.966 44.83 17.231 6.26 28.001 7.876 47.252 7.876" style="fill:#fff;stroke:#000;stroke-width:12.12737942" transform="matrix(.61534 0 0 .61387 124.215 115.29)"/><path d="M319.068 657.15c5.52 12.946 7.228 20.009 11.208 32.915 3.392 11.922 4.639 19.204 6.734 36.147" style="fill:none;stroke:#000;stroke-width:6;stroke-miterlimit:4;stroke-dasharray:none" transform="matrix(.61534 0 0 .61387 124.215 115.29)"/><path d="M280.677 472.758c-7.521 6.58-6.572 16.471-5.218 31.232 1.07 11.216 8.225 22.255 8.602 32.502 2.63 21.62-3.76 43.242-6.77 60.913-2.068 20.304 3.762 37.789 11.282 44.558 7.52 6.675 17.227 9.439 27.426 12.55 9.266 2.424 14.071 6.638 21.08 11.864 8.35 8.864 10.342 16.195 10.154 25.22" style="fill:#fff;stroke:#000;stroke-width:6;stroke-linejoin:round;stroke-miterlimit:4;stroke-dasharray:none" transform="matrix(.61534 0 0 .61387 124.215 115.29)"/><path d="M503.106 651.941c-6.731 16.29-13.866 32.176-14.539 48.869 3.096 13.462 2.154 29.348-1.212 42.003-4.308 17.367-21.338 37.359-38.168 44.224-16.828 6.866-27.596 8.482-46.848 8.482" style="fill:#fff;stroke:#000;stroke-width:12.12737942" transform="matrix(.61534 0 0 .61387 124.215 115.29)"/><path d="M345.743 692.27c13.63 8.359 37.19 7.148 58.299 6.768 23.515-.12 43.646-1.818 56.866-9.813" style="fill:none;stroke:#000;stroke-width:4.6300931" transform="matrix(.61534 0 0 .61387 124.215 115.29)"/><path d="M347.636 712.408c15.754 9.9 34.28 13.3 55.617 12.494 22.161-.54 39.148-2.404 54.332-12.78" style="fill:none;stroke:#000;stroke-width:4.85095215" transform="matrix(.61534 0 0 .61387 124.215 115.29)"/><g style="fill:none;stroke:#000"><path d="M229.89 385.64c17.367 20.948 41.608 24.585 69.173 25.315 29.519 1.077 59.166-10.645 66.819-25.314" style="stroke-width:6.25" transform="matrix(.597 0 0 .59557 193.854 330.3)"/><g style="stroke-width:5"><path d="m240.704 350.947.32 44.525M254.97 358.63l-.208 44.126M269.96 360.5l-.416 46.208M283.49 361.54l-.209 46.832M298.68 361.96v46.832M313.25 359.173l.208 49.409" transform="matrix(.597 0 0 .59557 193.854 330.3)"/><path d="m326.78 360.5.416 46" transform="matrix(.597 0 0 .59557 193.605 330.3)"/><path d="m341.56 358 .208 44.126M357.14 350.013l-1.423 44.205" transform="matrix(.597 0 0 .59557 193.854 330.3)"/></g></g><path d="M486.158 656.792c-5.52 12.947-7.585 19.653-11.566 32.558-3.392 11.923-4.639 19.205-6.734 36.147" style="fill:none;stroke:#000;stroke-width:6;stroke-miterlimit:4;stroke-dasharray:none" transform="matrix(.61534 0 0 .61387 124.215 115.29)"/><path d="M319.306 547.75c13.058-2.289 25.713-3.77 38.772-5.25 17.097-4.308 25.714 15.212 21.002 29.887-5.923 13.059-14.27 24.502-23.828 35.542-7.405 8.346-16.226 9.697-24.637 6.865-6.79-1.883-13.06-6.057-19.791-15.751-2.961-8.348-5.519-12.656-9.289-23.021-2.96-9.559 1.645-23.867 17.772-28.271z" style="fill-rule:evenodd;stroke:#000;stroke-width:.97019041pt" transform="matrix(.61534 0 0 .61387 124.215 115.29)"/><path d="M525.546 472.193c7.52 6.58 6.572 16.47 5.217 31.232-1.069 11.215-8.225 22.255-8.601 32.501-2.631 21.621 3.76 43.242 6.769 60.914 2.068 20.304-3.762 37.788-11.282 44.557-7.52 6.675-21.283 10.26-27.426 12.55-7.157 2.505-14.475 7.042-21.08 12.268-7.946 7.653-10.342 15.792-10.153 24.817" style="fill:#fff;stroke:#000;stroke-width:6;stroke-linejoin:round;stroke-miterlimit:4;stroke-dasharray:none" transform="matrix(.61534 0 0 .61387 124.215 115.29)"/><path d="M486.262 547.75c-13.059-2.289-25.713-3.77-38.772-5.25-17.098-4.308-25.715 15.212-21.002 29.887 5.923 13.059 14.27 24.502 23.828 35.542 7.404 8.346 16.225 9.697 24.637 6.865 6.79-1.883 13.06-6.057 19.79-15.751 2.961-8.348 5.519-12.656 9.289-23.021 2.961-9.559-1.644-23.867-17.771-28.271z" style="fill-rule:evenodd;stroke:#000;stroke-width:.97019041pt" transform="matrix(.61534 0 0 .61387 124.215 115.29)"/><path d="m329.54 654.508-.485 43.998h-88.03v73.435h264.091v-73.435h-90.725v-39.21" style="fill:none;stroke:#000;stroke-width:15.84151173;stroke-linecap:butt;stroke-linejoin:miter;stroke-miterlimit:4;stroke-dasharray:none;stroke-opacity:1"/><rect width="10.541" height="17.671" x="337.31" y="652.654" rx="0" ry="0" style="fill:#fff;fill-opacity:1;stroke:none"/><rect width="10.024" height="17.689" x="396.425" y="652.246" rx="0" ry="0" style="fill:#fff;fill-opacity:1;stroke:none"/></g></g></svg>