<svg xmlns="http://www.w3.org/2000/svg" width="62mm" height="88mm" viewBox="0 0 62 88"><g transform="matrix(.26458 0 0 .26458 -12.168 -219.96)"><rect width="233.576" height="331.844" x="46.368" y="831.723" rx="8.932" ry="8.935" style="fill:#fff;fill-opacity:1;stroke:gray;stroke-width:.755906;stroke-linecap:butt;stroke-linejoin:miter;stroke-miterlimit:4;stroke-dasharray:none;stroke-opacity:1"/><path d="M58.676 892.448c0-.556-.031-.958-.031-1.515h3.557v-2.738c-2.252.073-4.69.24-6.798-.687-1.633-.893-2.083-2.972-1.754-4.68.282-1.93 1.357-3.641 2.76-4.96 1.826-1.947 4.154-3.26 6.585-4.318 2.482 1.075 4.861 2.432 6.71 4.43 1.666 1.56 2.775 3.764 2.741 6.073.036 1.666-1 3.426-2.707 3.79-1.91.527-3.845.434-5.806.352v2.738h3.365c0 .557.03.959.03 1.515-2.641-.019-5.799-.019-8.652 0M258.99 1102.841c0 .557-.03.959-.03 1.515h3.557v2.738c-2.252-.072-4.69-.24-6.798.687-1.633.893-2.083 2.972-1.754 4.681.282 1.928 1.357 3.64 2.76 4.96 1.826 1.946 4.154 3.26 6.585 4.317 2.482-1.075 4.861-2.432 6.71-4.43 1.665-1.56 2.775-3.764 2.74-6.072.037-1.667-.998-3.427-2.706-3.79-1.91-.528-3.845-.434-5.806-.353v-2.738h3.365c0-.556.03-.958.03-1.515a657 657 0 0 1-8.652 0" style="fill:#000;stroke:none;stroke-width:.314961"/><path d="M124.077 1083.071c0-5.03-.28-8.661-.28-13.69h32.165v-24.756c-20.362.654-42.398 2.161-61.466-6.213-14.76-8.074-18.832-26.869-15.857-42.32 2.547-17.434 12.27-32.915 24.955-44.838 16.507-17.598 37.558-29.478 59.535-39.036 22.434 9.72 43.95 21.988 60.665 40.05 15.056 14.103 25.088 34.035 24.78 54.904.327 15.063-9.035 30.98-24.476 34.267-17.274 4.768-34.757 3.922-52.49 3.186v24.756h30.422c0 5.029.28 8.66.28 13.69-23.886-.168-52.435-.168-78.233 0" style="fill:#000;stroke:none;stroke-width:.949186"/><g aria-label="A" style="font-style:normal;font-variant:normal;font-weight:700;font-stretch:normal;font-size:3.77953px;line-height:0%;font-family:&quot;Levenim MT&quot;;-inkscape-font-specification:&quot;Sans Bold&quot;;letter-spacing:0;word-spacing:0;fill:#000;fill-opacity:1;stroke:none;stroke-width:.314961"><path d="M87.085 721.474H82.42l-1.843-4.858h-9.62l-1.923 4.858H64.37l9.09-23.582h4.553zm-8.192-9.234-3.126-8.096-3.142 8.096z" style="font-size:32.8316px;line-height:1.25;stroke-width:.314961" transform="scale(.8319 1.20205)"/></g><g aria-label="A" style="font-style:normal;font-variant:normal;font-weight:700;font-stretch:normal;font-size:3.77953px;line-height:0%;font-family:&quot;Levenim MT&quot;;-inkscape-font-specification:&quot;Sans Bold&quot;;letter-spacing:0;word-spacing:0;fill:#000;fill-opacity:1;stroke:none;stroke-width:.314961"><path d="M-305.159-938.425h-4.665l-1.843-4.858h-9.619l-1.924 4.858h-4.665l9.09-23.582h4.553zm-8.192-9.234-3.126-8.096-3.142 8.096z" style="font-size:32.8316px;line-height:1.25;stroke-width:.314961" transform="scale(-.8319 -1.20205)"/></g></g></svg>