<svg xmlns="http://www.w3.org/2000/svg" width="234" height="333"><g transform="translate(0 -719.362)"><rect width="233.244" height="332.244" x=".378" y="719.74" rx="8.919" ry="8.946" style="fill:#fff;fill-opacity:1;stroke:gray;stroke-width:.755906;stroke-linecap:butt;stroke-linejoin:miter;stroke-miterlimit:4;stroke-dasharray:none;stroke-opacity:1"/><path d="M17.195 780.702a23 23 0 0 0-3.383-5.256c-.874-1.022-1.836-1.962-2.81-2.885-.761-.722-1.536-1.439-2.158-2.287-.42-.572-.772-1.21-.939-1.904-.303-1.258.027-2.607.648-3.737.364-.662.83-1.27 1.404-1.754.852-.72 1.965-1.149 3.068-1.055 1.011.086 1.957.602 2.695 1.312a6.2 6.2 0 0 1 1.486 2.268 6.2 6.2 0 0 1 1.485-2.268c.738-.71 1.684-1.226 2.696-1.312 1.103-.094 2.215.336 3.067 1.055.574.484 1.04 1.092 1.404 1.754.622 1.13.951 2.479.648 3.737-.167.694-.518 1.332-.939 1.904-.622.848-1.397 1.565-2.158 2.287-.974.923-1.935 1.863-2.81 2.885a23 23 0 0 0-3.383 5.256M216.784 991.022a23 23 0 0 1-3.383 5.257c-.875 1.021-1.836 1.961-2.81 2.885-.761.721-1.536 1.438-2.158 2.286-.42.573-.772 1.21-.94 1.904-.302 1.258.028 2.607.65 3.737.363.662.829 1.27 1.403 1.755.852.718 1.964 1.148 3.067 1.054 1.012-.086 1.958-.602 2.696-1.312a6.2 6.2 0 0 0 1.485-2.268c.324.858.833 1.64 1.486 2.268.738.71 1.684 1.226 2.695 1.312 1.103.094 2.216-.336 3.068-1.054.574-.484 1.04-1.093 1.404-1.755.621-1.13.95-2.479.648-3.737-.167-.694-.518-1.331-.939-1.904-.622-.848-1.397-1.565-2.158-2.286-.974-.924-1.936-1.864-2.81-2.885a23 23 0 0 1-3.383-5.257" style="fill:red;fill-opacity:1;stroke:none;stroke-width:1"/><path d="M116.902 971.086a208.6 208.6 0 0 0-30.592-47.54c-7.911-9.237-16.607-17.742-25.418-26.093-6.882-6.523-13.886-13.01-19.517-20.678-3.804-5.18-6.979-10.942-8.491-17.224-2.74-11.378.24-23.575 5.863-33.796 3.292-5.985 7.505-11.49 12.694-15.866 7.71-6.502 17.77-10.39 27.745-9.54 9.148.777 17.704 5.45 24.38 11.866 5.908 5.68 10.51 12.759 13.434 20.515 2.924-7.756 7.526-14.836 13.435-20.515 6.676-6.416 15.23-11.089 24.38-11.867 9.975-.848 20.034 3.04 27.744 9.54 5.19 4.377 9.402 9.882 12.694 15.867 5.622 10.22 8.603 22.418 5.863 33.796-1.512 6.282-4.687 12.045-8.491 17.224-5.631 7.667-12.635 14.155-19.517 20.678-8.81 8.35-17.507 16.856-25.418 26.093a208.6 208.6 0 0 0-30.592 47.54" style="fill:red;fill-opacity:1;stroke:none;stroke-width:3.01472"/><g aria-label="A" style="font-style:normal;font-variant:normal;font-weight:700;font-stretch:normal;font-size:3.77201px;line-height:0%;font-family:&quot;Levenim MT&quot;;-inkscape-font-specification:&quot;Sans Bold&quot;;letter-spacing:0;word-spacing:0;fill:red;fill-opacity:1;stroke:none;stroke-width:1"><path d="M32.051 627.488h-4.655l-1.84-4.847h-9.6l-1.92 4.847H9.381l9.071-23.534h4.544zm-8.175-9.215-3.12-8.08-3.136 8.08z" style="font-size:32.7663px;line-height:1.25;stroke-width:1" transform="scale(.83055 1.20403)"/></g><g aria-label="A" style="font-style:normal;font-variant:normal;font-weight:700;font-stretch:normal;font-size:3.77201px;line-height:0%;font-family:&quot;Levenim MT&quot;;-inkscape-font-specification:&quot;Sans Bold&quot;;letter-spacing:0;word-spacing:0;fill:red;fill-opacity:1;stroke:none;stroke-width:1"><path d="M-249.691-844.008h-4.656l-1.84-4.848h-9.6l-1.92 4.848h-4.655l9.071-23.535h4.544zm-8.176-9.216-3.12-8.08-3.136 8.08z" style="font-size:32.7663px;line-height:1.25;stroke-width:1" transform="scale(-.83055 -1.20403)"/></g></g></svg>