<svg xmlns="http://www.w3.org/2000/svg" width="234" height="333"><defs><clipPath id="a" clipPathUnits="userSpaceOnUse"><rect width="743.244" height="1055.244" x="-2.947" y="-1.597" rx="28.421" ry="28.413" style="fill:#fff;fill-opacity:1;stroke:gray;stroke-width:.75590551;stroke-linecap:butt;stroke-linejoin:miter;stroke-miterlimit:4;stroke-dasharray:none;stroke-opacity:1"/></clipPath></defs><g clip-path="url(#a)" style="stroke-width:3.17257667" transform="matrix(.31484 0 0 .31557 .928 .504)"><path d="M-11.015-37.756h756.111v544.681H-11.015z" style="fill:#b4d9ed;fill-opacity:1;stroke:none;stroke-width:3.3735013"/><path d="M761.78 944.158-29.552 493.952c268.78 9.957 520.988-12.382 789.513 3.705z" style="fill:#437a9f;fill-opacity:1;stroke:none;stroke-width:3.3735013"/><path d="m-27.694 473.577 791.322 587.293-372.496-3.705Z" style="fill:#a493a4;fill-opacity:1;stroke:none;stroke-width:3.3735013"/><path d="m-25.84 462.462 437.358 594.703-431.8 1.852Z" style="fill:#267834;fill-opacity:1;stroke:none;stroke-width:3.3735013"/><path d="m-20.281 473.577 446.625 589.146-83.395-5.558-359.524-572.472 281.689 568.766-66.716 1.853z" style="fill:#6ea221;fill-opacity:1;stroke:none;stroke-width:3.3735013"/><path d="M758.069 1068.28V944.153l-785.763-466.87Z" style="fill:#f7d042;fill-opacity:1;stroke:none;stroke-width:3.3735013"/><path d="M752.51 820.024-25.84 479.135l776.496 363.121Z" style="fill:#f3eee7;fill-opacity:1;stroke:none;stroke-width:3.3735013"/><path d="M752.51 951.563-31.4 477.283l783.91 433.522Z" style="fill:#f8f3d1;fill-opacity:1;stroke:none;stroke-width:3.3735013"/><path d="M746.95 881.162-23.988 482.841l772.79 387.205Z" style="fill:#f3eee7;fill-opacity:1;stroke:none;stroke-width:3.3735013"/><path d="M244.729 410.587 367.04 349.45l283.541 83.37-83.394 61.138H278.086Z" style="fill:#bfb08e;fill-opacity:1;stroke:none;stroke-width:3.3735013"/><path d="m265.114 449.493 68.569-35.2 3.706 14.82 38.918-18.526 16.679 38.906 20.385-40.759 27.798 40.759 61.156-25.937 5.56 22.232 66.716 24.084v29.643l-283.542-3.706Z" style="fill:#b9a375;fill-opacity:1;stroke:none;stroke-width:3.3735013"/><path d="M-23.988 199.384 239.17 332.776l68.569 170.444-326.166-7.41Z" style="fill:#a58240;fill-opacity:1;stroke:none;stroke-width:3.3735013"/><path d="M756.216 497.662h-253.89l244.624-125.98 1.853 122.275z" style="fill:#b79f6f;fill-opacity:1;stroke:none;stroke-width:3.3735013"/><path d="m70.68 571.787 476.155 446.551c25.484-2.45 28.156-22.55 22.512-49.084z" style="fill:#f70000;fill-opacity:1;stroke:none;stroke-width:3.3735013"/><path d="m70.625 571.728 408.15 433.812c21.963-2.509 24.356-22.145 19.615-48.024z" style="fill:#f8eef2;fill-opacity:1;stroke:none;stroke-width:3.3735013"/><path d="m70.56 571.658 339.9 410.188c18.406-2.48 20.497-21.139 16.642-45.696z" style="fill:#00f;fill-opacity:1;stroke:none;stroke-width:3.3735013"/><path d="m-12.868 208.647 248.33 120.423 12.973 29.643-72.275-7.41-24.092-31.496-109.34-27.79-59.303-38.906Z" style="fill:#5c772e;fill-opacity:1;stroke:none;stroke-width:3.3735013"/><path d="m-11.102 495.81 1.864-83.37 50.35-11.116 20.512 37.053 7.459-85.222 24.241 66.695 9.324-1.852 1.865-42.611 20.513 62.99 41.024-5.558 3.73-22.232 26.107 31.495 18.647-7.41v-64.843l26.107 75.959 63.478 55.754z" style="fill:#58762c;fill-opacity:1;stroke:none;stroke-width:3.3735013"/><path d="m499.55 499.447 121.381-62.923-9.266 22.232 74.128-29.642-20.385 44.463h11.12l12.972-18.526 1.853 20.38 31.505-38.907 9.266 11.116 14.826-24.084 1.853 74.106z" style="fill:#a3833d;fill-opacity:1;stroke:none;stroke-width:3.3735013"/><path d="m-9.579 498.811 323.786 4.976v-7.041h211.52l-7.623 4.694h240.103" style="fill:none;stroke:#d45500;stroke-width:16.86750603;stroke-linecap:butt;stroke-linejoin:miter;stroke-miterlimit:4;stroke-dasharray:none;stroke-opacity:1"/></g></svg>