<svg xmlns="http://www.w3.org/2000/svg" xmlns:xlink="http://www.w3.org/1999/xlink" width="234" height="333" version="1.0"><defs><filter id="s" style="color-interpolation-filters:sRGB"><feGaussianBlur stdDeviation="1.302"/></filter><filter id="d" style="color-interpolation-filters:sRGB"><feGaussianBlur stdDeviation=".781"/></filter><filter id="c" style="color-interpolation-filters:sRGB"><feGaussianBlur stdDeviation=".605"/></filter><filter id="e" width="1.341" height="1.185" x="-.17" y="-.093" style="color-interpolation-filters:sRGB"><feGaussianBlur stdDeviation="1.557"/></filter><filter id="w" style="color-interpolation-filters:sRGB"><feGaussianBlur stdDeviation=".912"/></filter><filter id="y" style="color-interpolation-filters:sRGB"><feGaussianBlur stdDeviation=".532"/></filter><filter id="b" style="color-interpolation-filters:sRGB"><feGaussianBlur stdDeviation="1.108"/></filter><filter id="A" width="1.167" height="1.428" x="-.083" y="-.214" style="color-interpolation-filters:sRGB"><feGaussianBlur stdDeviation=".385"/></filter><filter id="g" width="1.221" height="1.027" x="-.11" y="-.013" style="color-interpolation-filters:sRGB"><feGaussianBlur stdDeviation=".813"/></filter><filter id="f" width="1.251" height="1.026" x="-.125" y="-.013" style="color-interpolation-filters:sRGB"><feGaussianBlur stdDeviation=".344"/></filter><filter id="h" style="color-interpolation-filters:sRGB"><feGaussianBlur stdDeviation=".632"/></filter><filter id="i" width="1.369" height="1.026" x="-.184" y="-.013" style="color-interpolation-filters:sRGB"><feGaussianBlur stdDeviation=".347"/></filter><filter id="j" width="1.417" height="1.109" x="-.208" y="-.055" style="color-interpolation-filters:sRGB"><feGaussianBlur stdDeviation=".959"/></filter><filter id="k" width="1.528" height="1.066" x="-.264" y="-.033" style="color-interpolation-filters:sRGB"><feGaussianBlur stdDeviation=".483"/></filter><filter id="l" width="1.427" height="1.352" x="-.214" y="-.176" style="color-interpolation-filters:sRGB"><feGaussianBlur stdDeviation=".305"/></filter><filter id="m" style="color-interpolation-filters:sRGB"><feGaussianBlur stdDeviation=".359"/></filter><filter id="n" width="1.424" height="1.025" x="-.212" y="-.013" style="color-interpolation-filters:sRGB"><feGaussianBlur stdDeviation=".964"/></filter><filter id="o" style="color-interpolation-filters:sRGB"><feGaussianBlur stdDeviation=".423"/></filter><filter id="p" width="1.242" height="1.027" x="-.121" y="-.013" style="color-interpolation-filters:sRGB"><feGaussianBlur stdDeviation="1.071"/></filter><filter id="q" style="color-interpolation-filters:sRGB"><feGaussianBlur stdDeviation=".735"/></filter><filter id="r" width="3.163" height="1.196" x="-1.082" y="-.098" style="color-interpolation-filters:sRGB"><feGaussianBlur stdDeviation="1.08"/></filter><filter id="z" width="1.123" height="1.304" x="-.061" y="-.152" style="color-interpolation-filters:sRGB"><feGaussianBlur stdDeviation=".379"/></filter><filter id="B" style="color-interpolation-filters:sRGB"><feGaussianBlur stdDeviation=".085"/></filter><filter id="D" width="1.585" height="1.151" x="-.293" y="-.075" style="color-interpolation-filters:sRGB"><feGaussianBlur stdDeviation=".715"/></filter><filter id="F" style="color-interpolation-filters:sRGB"><feGaussianBlur stdDeviation="4.365"/></filter><radialGradient id="t" cx="149.65" cy="280.97" r="56.071" gradientTransform="matrix(.74729 -1.57796 -.791 -.3746 -19.608 635.61)" gradientUnits="userSpaceOnUse"><stop offset="0" style="stop-color:#000"/><stop offset="1" style="stop-color:#000;stop-opacity:0"/></radialGradient><radialGradient id="u" cx="213.7" cy="320.9" r="79.727" gradientTransform="matrix(-1.0591 -.62553 -.36045 .61028 155.553 255.33)" gradientUnits="userSpaceOnUse"><stop offset="0" style="stop-color:#000;stop-opacity:.41298"/><stop offset="1" style="stop-color:#000;stop-opacity:0"/></radialGradient><radialGradient id="v" cx="205.71" cy="305.79" r="35.677" gradientTransform="matrix(.96791 .17792 -.1111 .60438 40.572 84.896)" gradientUnits="userSpaceOnUse"><stop offset="0" style="stop-color:#fff"/><stop offset="1" style="stop-color:#fff;stop-opacity:0"/></radialGradient><radialGradient xlink:href="#a" id="x" cx="136.53" cy="258.91" r="17.93" gradientTransform="matrix(2.0736 1.8562 -.78579 .87781 60.101 -217.82)" gradientUnits="userSpaceOnUse"/><radialGradient xlink:href="#a" id="C" cx="130.31" cy="243.15" r="11.495" gradientTransform="matrix(-.65031 -.82653 -.69371 .54581 147.373 220.04)" gradientUnits="userSpaceOnUse"/><linearGradient id="a"><stop offset="0" style="stop-color:#fff"/><stop offset="1" style="stop-color:#fff;stop-opacity:0"/></linearGradient><linearGradient id="E" x1="350.52" x2="331.03" y1="4.289" y2="91.162" gradientTransform="translate(4.04 -5.05)" gradientUnits="userSpaceOnUse"><stop offset="0" style="stop-color:#000"/><stop offset="1" style="stop-color:#000;stop-opacity:0"/></linearGradient></defs><g style="stroke-width:3.18132377" transform="matrix(.31382 0 0 .31485 -79.873 109.577)"><rect width="743.244" height="1055.244" x="255.719" y="-346.827" rx="28.421" ry="28.413" style="fill:#06f;fill-opacity:1;stroke:#06f;stroke-width:2.40477991;stroke-linecap:butt;stroke-linejoin:miter;stroke-miterlimit:4;stroke-dasharray:none;stroke-opacity:1"/><g style="stroke-width:2.52970886" transform="matrix(1.25458 -.06188 .06174 1.25755 870.636 -117.365)"><path d="M228.1 548.74c42.996-6.361 69.86-19.019 87.646-35.67 10.376-26.188 21.543-32.025 32.32-56.797 22.944-74.088 19.996-168.09 254-196.21 39.213-4.712 13.736 53.4 24.821 210.63 18.48-11.94 24.674-45.996 34.305-73.864-19.741 90.024-27.809 90.01 22.11 177.57-16.871-20.21-19.428-42.011-51.749-60.505 7.32 94.306 32.336 171.47 13.816 174.37-91.11 14.27-72.53-36.89-145.8-42.96-65.15-5.39-82.53-11.34-114.25-39.71-80.15-17.11-17.88-53.29-155.5-44.29 6.362-7.161 20.922-3.405 20.049-9.016-.873-5.615-15.587 3.174-21.773-3.545z" style="fill:#ececec;fill-rule:evenodd;stroke-width:2.52970886;filter:url(#b)" transform="matrix(-1 0 0 1 252.363 -259.8)"/><path d="M440.68 636.51c8.808-1.812 9.242-.253 10.912-5.212 17.497 4.223 31.612 7.986 59.085 8.182 38.812 3.33 48.275 36.095 98.481 65.376-63.624-29.551-136.94 17.88-168.48-68.346z" style="fill:#fff;fill-rule:evenodd;stroke-width:2.52970886;filter:url(#c)" transform="matrix(-1 0 0 1 252.363 -259.8)"/><path d="M440.21 635.9c6.091-.39 10.443-1.661 9.849-6.06 14.431 24.53 60.811 40.265 102.03 61.871-34.422-1.034-87.973 11.256-111.87-55.81zm55.053 4.04c47.055-6.35 60.097 25.543 92.682 51.014-50.636-18.553-61.918-45.523-92.682-51.013" style="fill:#fdb000;fill-rule:evenodd;stroke-width:2.52970886;filter:url(#d)" transform="matrix(-1 0 0 1 252.363 -259.8)"/><path d="M579.66 366.53c-5.51-4.323-4.72-5.613-5.835-8.075-1.266-2.796-3.31-4.61-4.522-10.496-1.62-7.868 6.344-23.88 14.264-20.597 16.976 7.037 1.603 43.49-3.907 39.168z" style="fill:#000;fill-rule:evenodd;stroke-width:2.52970886;filter:url(#e)" transform="matrix(-1 0 0 1 252.363 -259.8)"/><path d="M123.87 264.51c-.071.85-.901 1.8-.99 3.022-.054.737.213 1.654.18 2.077-.533 6.86-.49 8.394 1.415 16.338.464 12.183.246 20.56 4.305 40.664-3.45-11.648-5.036-24.13-6.014-35.995-.486-8.066-2.036-13.15-.076-21.065.124-.503-.12-1.398-.033-2.132.139-1.168 1.088-2.09 1.213-2.909" style="fill:#000;stroke-width:2.52970886;filter:url(#f)" transform="matrix(-1 0 0 1 24.263 0)"/><path d="m143.52 252.07-7.658-5.829 5.559-2.451s-2.776-9.308-2.834-13.86c-.06-4.672 3.674-9.429 3.92-14.095.232-4.392-3.756-11.072-3.581-15.466.203-5.106 2.716-11.606 3.296-16.683 1.006-8.815-.742-20.453-.549-29.547 2.2-14.28 11.87-46.972 11.87-46.972s-8.444 33.292-10.355 47.477c.077 9.362 2.565 21.243 1.559 30.305-.516 4.644-3.226 10.495-3.296 15.168-.077 5.182 2.845 10.604 2.492 15.775-.303 4.436-2.079 10.358-2.326 14.798-.264 4.738 2.581 14.617 2.581 14.617l-3.283.757 2.605 6.008z" style="fill:#000;fill-rule:evenodd;stroke-width:2.52970886;filter:url(#g)" transform="matrix(-1 0 0 1 24.263 0)"/><path d="m124.64 251.13-2.5-3.214 3.571-10.357 4.298-32.643-.096-6.545 1.32-7.309 6.264-51.003-5.353 51.042-1.225 7.658.216 6.53-3.638 31.914-3.928 10.357 1.071 3.571z" style="fill:#000;fill-rule:evenodd;stroke-width:2.52970886;filter:url(#h)" transform="matrix(-1 0 0 1 24.263 0)"/><path d="m141.42 261.46-4.293 4.798c3.932 2.61 2.01 5.22.758 7.829-3.843 15.13.11 34.908.252 52.275.374-17.691-.31-33.795 1.263-53.286 2.26-2.524 2.2-4.716-.253-6.566z" style="fill:#000;fill-rule:evenodd;stroke-width:2.52970886;filter:url(#i)" transform="matrix(-1 0 0 1 24.263 0)"/><path d="M197.89 258.84c9.48-5.286-.926-5.005-3.16-14.075-2.205-8.944 2.018-23.738-.804-27.92-8.871 11.48-2.903 45.824 3.964 41.995" style="fill:#000;fill-rule:evenodd;stroke-width:2.52970886;filter:url(#j)" transform="matrix(-.63417 0 0 .66498 -47.397 89.005)"/><path d="M193.93 214.43c-3.7 1.072-4.397-19.786-.126-32.535.329 6.45-2.778 14.431-1.714 21.88.861 6.027 2.939 10.336 1.84 10.655" style="fill:#000;fill-rule:evenodd;stroke-width:2.52970886;filter:url(#k)" transform="matrix(-1.0305 -.03714 -.0462 .60666 39.208 107.68)"/><path d="M193.51 184.07c-2.701-1.49-2.897-1.32.462-4.156.975 2.143 1.624 2.518-.462 4.156" style="fill:#000;fill-rule:evenodd;stroke-width:2.52970886;filter:url(#l)" transform="matrix(-.52038 0 0 .69616 -68.772 80.327)"/><path d="M207.59 315.25c-1.892 1.96-4.215 3.124-4.484 6.507-.7 8.774 13.659 33.017 22.415 44.632-8.138-14.428-19.322-29.117-19.772-44.29z" style="fill:#000;fill-rule:evenodd;stroke-width:2.52970886;filter:url(#m)" transform="matrix(-1 0 0 1 24.263 0)"/><path d="M185.36 310.71c-4.558-11.077-9.444-25.362-9.398-37.935-9.558-35.093 1.303-101.07 3.842-146.92-1.416 48.689-10.112 111.14-1.82 146.19.117 11.92 3.862 26.744 7.376 38.664z" style="fill:#000;fill-rule:evenodd;stroke-width:2.52970886;filter:url(#n)" transform="matrix(-1 0 0 1 24.263 0)"/><path d="M187.38 318.03c1.887 22.804 6.096 22.442 10.721 31.507 5.339 10.464 1.887 11.698 18.068 24.304-15.012-13.492-12.746-16.779-17.043-25.191-5.222-10.222-8.706-8.672-11.747-30.62z" style="fill:#000;fill-rule:evenodd;stroke-width:2.52970886;filter:url(#o)" transform="matrix(-1 0 0 1 24.263 0)"/><path d="M301.03 348.08c-24.959-64.467-3.405-118.57-21.213-192.94 19.64 74.035-.092 124.89 21.213 192.94" style="fill:#000;fill-rule:evenodd;stroke-width:2.52970886;filter:url(#p)" transform="matrix(-1 0 0 1 24.263 0)"/><path d="M4.546 288.99c30.8-5.59 62.08-10.01 85.042-34.54 8.017-17.72 19.612-36.64 32.132-55.87l7.07-22.728-6.565 23.044c-11.85 18.52-23.526 37.05-32.074 55.74-25.397 25.36-55.64 29.25-85.61 34.35z" style="fill:#000;fill-rule:evenodd;stroke-width:2.52970886;filter:url(#q)" transform="matrix(-1 0 0 1 24.263 0)"/><path d="M401.79 209.19c6.116-1.974 4.834 24.996 2.273 33.84.458-14.993 1.185-29.418-2.273-33.84" style="fill:#000;fill-rule:evenodd;stroke-width:2.52970886;filter:url(#r)" transform="matrix(-1 0 0 1 24.263 0)"/><path d="M356.19 3.969s-27.766 2.075-39.281 5c-8.022 2.038-20.601 8.455-28.562 10.719-5.66 1.609-10.806 1.17-16.438 2.875-22.785 4.139-52.239 18.91-61.781 25-10.785 6.883-20.266 10.485-27.5 22.125-11.388 18.325.204 32.544-1.969 60.312-1.706 21.796-7.495 51.693-6.594 78.25.556 34.206-6.764 68.149 12.844 106.44.07 10.766 9.145 38.103 21.438 53.562 9.421 9.488 18.417 10.746 22.125 5-13.42-17.994-24.418-34.445-24.53-56.094 4.681-4.308 3.898-10.54-4.75-17.47 0 0-8.053-56-7.844-91.437.159-27.021-1.566-54.318 1.593-74.97 4.209-27.506.133-55.502-1.593-65.343 5.397-5.437 11.889-11.628 15-13.25 5.951-3.103 15.333-3.58 21.406-6.438 6.99-3.289 14.403-11.086 21.438-14.28 9.078-4.125 21.543-6.246 32.469-8.813-3.396 1.994-6.72 4.416-11.72 6.687-8.911 4.049-8.07 12.606-13.468 22.875-14.615 27.8 2.962 87.6 4.875 146.41 2.084 64.107 6.24 121.82 24.625 177.12 5.612 12.097 10.019 15.12 13.906 14.25 39.639 17.774 37.923 49.21 115.28 36.125 3.963-1.904 7.73-8.798 5.968-8.437-72.624 14.859-76.346-12.744-113.34-35.688-9.859-47.145-20.695-65.482-19.312-88.375 1.686-27.925-3.562-96.437-3.562-96.438-17.031-109.26-34.181-165.05 30-185l-14.75 4.437c3.366-1.399 6.762-2.812 9.75-3.718 6.517-1.978 15.562-3.3 22.156-5 6.698-1.727 22.125-6.438 22.125-6.438zm13.219 2.625c-18.058.158-41.473 7.45-53.938 8.812-1.888 3.546 19.392 4.354 18.062 8.156-6.317 18.068-6.65 38.906-3.844 61.156 17.272 33.472 8.816 68.848 32.22 145.69 9.761 58.81-20.458 106.19 17.155 174.28-1.878 14.394-8.94 4.586-14.312 5 5.834 6.034 40 16.523 53.594.032 6.007-15.294-11.684-104.08-17.875-160.03-8.54 44.689 9.13 143.28-5 141.44s-12.85-161.44-12.85-161.44c-4.25-32.84-30.2-77.48-21.28-117.85 12.06-21.217 20.63-26.464 26.91-43.465 9.042 23.31-.95 120.31 8.156 137.06-2.99-54.51-3.73-105.61-2.91-154.41l-.875-34.188c-3.472-7.863-12.384-10.345-23.219-10.25zm-15.844 56.5c.233-.011.453-.012.688 0 8.966.435 14.873 15.745 13.53 25.75-2.982 11.612-12.119 25.966-20.625 23.78-4.37-1.122-5.37-8.063-7.156-12.78-1.689-4.463-4.325-10.137-2.875-15.781 2.528-9.843 9.204-20.634 16.438-20.97zM161.905 93.25c-6.2 3.774-21.439 32.376-22.844 42.875-2.73 20.407-6.706 43.2-9.666 67.155-3.012 24.384-4.694 43.716-6.772 64.282-1.744 17.275 5.887 59.864 5.887 59.864.9 9.245 8.243 10.085 10.29 4.281 1.516-4.293-2.517-40.05.26-56.302 5.107-29.88 2.303-83.473 4.376-122.97 1.36-25.95 18.47-59.18 18.47-59.18zM129.025 169c-4.5 11.22-3.91 22.1-9.03 30.09-18.23 30.19-29.064 45.36-31.188 51.82-2.697 15.59-66.954 39.92-81.31 37.39 7.449 4.35 72.426-16.24 82.592-36.3 5.179-9.73 15.941-26.17 30.625-51.75 5.995-8.385 5.219-20.53 8.313-31.25z" style="fill:#fd9400;fill-rule:evenodd;stroke-width:2.52970886;filter:url(#s)" transform="matrix(-1 0 0 1 24.263 0)"/><path d="M-176.452 280.06c1.43 25.189 18.47 47.855 51.79 47.855 33.317 0 72.5-31.954 72.5-64.285s-27.04-58.571-60.357-58.571-63.93 42.668-63.93 75z" style="opacity:.3;fill:url(#t);stroke-width:2.38826442"/><path d="M-134.307 344.34c-159.78 128.58-242.01-121.97-35-100.71-4.826 66.549-18.056 47.522 35 100.71" style="opacity:.70845002;fill:url(#u);fill-rule:evenodd;stroke-width:2.52970886"/><path d="M204.02 319.79c74.552 56.183 83.129-72.797-5.446-36.875 1.75 29.758 19.72 22.065 5.446 36.875" style="fill:url(#v);fill-rule:evenodd;stroke-width:2.52970886;filter:url(#w)" transform="matrix(-1 0 0 1 24.263 0)"/><ellipse cx="132.33" cy="256.79" rx="17.93" ry="18.309" style="opacity:.41300001;fill:url(#x);stroke-width:2.52970886;filter:url(#y)" transform="matrix(-1 0 0 1 24.263 0)"/><path d="M-118.062 257.47c0 5.667 4.52 10.267 10.09 10.267 5.569 0 10.892-4.657 10.088-10.268-.652-4.559-5.345-8.632-10.089-10.268-5.265-1.816-10.089 4.6-10.089 10.268" style="fill:#d58400;stroke-width:2.16921926"/><path d="M-116.527 257.36c0 4.565 3.819 8.27 8.524 8.27s9.482-3.806 8.523-8.27c-.752-3.5-3.921-6.731-8.523-8.27-4.462-1.493-8.524 3.705-8.524 8.27" style="fill:#000;stroke-width:2.52970886"/><path d="M123.57 263.27c3.499 6.8 9.608 8.043 14.821 2.5-5.701 3.478-10.547 2.11-14.821-2.5" style="fill:#ff3e00;fill-rule:evenodd;stroke-width:2.52970886;filter:url(#z)" transform="matrix(-1 0 0 1 24.263 0)"/><path d="M129.11 265.24c3.126 1.017 9.477.86 10.893-4.821-2.948 2.496-7 4.214-10.893 4.821" style="fill:#fd0;fill-rule:evenodd;stroke-width:2.52970886;filter:url(#A)" transform="matrix(-1 0 0 1 24.263 0)"/><path d="M139.78 263.1c7.85-2.411 10.433-7.86.505-11.617 4.018 3.496 1.688 8.766-.505 11.617" style="fill:#fff;fill-rule:evenodd;stroke-width:2.52970886;filter:url(#B)" transform="matrix(-1 0 0 1 24.263 0)"/><path d="M-94.177 248.33c-2.96-22.232-24.644-21.861-21.718-5.303 7.044-4.8 13.26-2.563 21.718 5.303" style="fill:url(#C);fill-rule:evenodd;stroke-width:2.52970886"/><path d="M121.22 268.79c-9.432-11.94-4.538-17.368.505-22.728-4.915 5.466-7.598 11.925-.505 22.728" style="fill:#000;fill-rule:evenodd;stroke-width:2.52970886;filter:url(#D)" transform="matrix(-1 0 0 1 24.263 0)"/><path d="M192.94 63.22C256.6 26.489 329.95-1.307 382.85 7.662c22.35 6.707 8.03 68.424 11.11 104.05-55.98-33.503-137.17-41.227-201.02-48.49Z" style="opacity:.49046003;fill:url(#E);stroke-width:2.52970886;filter:url(#F)" transform="matrix(-1 0 0 1 24.263 0)"/></g></g></svg>