<svg xmlns="http://www.w3.org/2000/svg" xmlns:xlink="http://www.w3.org/1999/xlink" width="234.332" height="333.001"><defs><radialGradient xlink:href="#a" id="p" cx="291.3" cy="412.01" r="9.276" gradientTransform="matrix(1.0214 .08506 -.01758 .21116 1.018 299.55)" gradientUnits="userSpaceOnUse"/><radialGradient xlink:href="#a" id="q" cx="330.76" cy="426.11" r="7.844" gradientTransform="matrix(.7842 .24324 -.06863 .22126 100.47 251.51)" gradientUnits="userSpaceOnUse"/><radialGradient xlink:href="#a" id="r" cx="324.31" cy="409.91" r="6.671" gradientTransform="matrix(.37443 .24659 -.72589 1.1022 500.08 -121.34)" gradientUnits="userSpaceOnUse"/><radialGradient xlink:href="#a" id="s" cx="329.08" cy="418.41" r="4.987" gradientTransform="matrix(.45986 -.10498 .1987 .87038 93.99 89.336)" gradientUnits="userSpaceOnUse"/><radialGradient xlink:href="#a" id="t" cx="318.72" cy="403.49" r="7.33" gradientTransform="matrix(.43131 .04945 -.09395 .81943 219.41 57.172)" gradientUnits="userSpaceOnUse"/><radialGradient xlink:href="#a" id="u" cx="305.57" cy="396.35" r="7.508" gradientTransform="matrix(.31949 -.15763 .94313 1.9116 -166.06 -316.27)" gradientUnits="userSpaceOnUse"/><radialGradient xlink:href="#a" id="v" cx="297.88" cy="403.93" r="11.99" gradientTransform="matrix(.42439 -.40048 .36748 .38942 22.573 365.18)" gradientUnits="userSpaceOnUse"/><radialGradient xlink:href="#a" id="y" cx="258.39" cy="533.86" r="4.607" gradientTransform="matrix(.72868 0 0 1.2907 70.107 -155.79)" gradientUnits="userSpaceOnUse"/><radialGradient xlink:href="#a" id="z" cx="250.49" cy="527.57" r="4.83" gradientTransform="matrix(.88869 .06065 -.09137 1.3388 76.088 -195.21)" gradientUnits="userSpaceOnUse"/><radialGradient xlink:href="#a" id="A" cx="244.29" cy="522.71" r="7.821" gradientTransform="matrix(.62301 -.08049 .18742 1.4507 -5.874 -217.46)" gradientUnits="userSpaceOnUse"/><radialGradient xlink:href="#a" id="C" cx="227.1" cy="519.29" r="8.848" gradientTransform="matrix(.29643 -.21761 .50819 .69225 -104.12 208.91)" gradientUnits="userSpaceOnUse"/><radialGradient id="f" cx="359.22" cy="421.54" r="9.482" gradientTransform="matrix(.70623 .01348 -.01267 .66392 110.87 136.83)" gradientUnits="userSpaceOnUse"><stop offset="0" stop-color="#e7894c"/><stop offset="1" stop-color="#d43300"/></radialGradient><radialGradient xlink:href="#e" id="X" cx="421.67" cy="428.23" r="10.094" gradientTransform="matrix(1.901 .01616 -.00855 1.0066 -376.26 -9.01)" gradientUnits="userSpaceOnUse"/><radialGradient xlink:href="#e" id="ac" cx="367.09" cy="424.35" r="12.172" gradientTransform="matrix(2.1603 .88289 -.36231 .88651 -272.19 -273.01)" gradientUnits="userSpaceOnUse"/><radialGradient xlink:href="#a" id="aV" cx="377.5" cy="829.42" r="6.071" gradientTransform="matrix(1 0 0 1.2206 0 -182.96)" gradientUnits="userSpaceOnUse"/><radialGradient xlink:href="#a" id="aA" cx="406.43" cy="830.67" r="5.179" gradientTransform="matrix(1 0 0 1.0862 0 -71.609)" gradientUnits="userSpaceOnUse"/><radialGradient xlink:href="#a" id="aB" cx="408.04" cy="802.18" r="4.643" gradientTransform="matrix(1 0 0 1.0769 0 -61.706)" gradientUnits="userSpaceOnUse"/><radialGradient xlink:href="#a" id="aC" cx="409.29" cy="768.08" r="4.821" gradientTransform="matrix(1 0 0 .96296 0 28.447)" gradientUnits="userSpaceOnUse"/><radialGradient xlink:href="#a" id="aD" cx="382.32" cy="748.97" r="6.071" gradientTransform="matrix(1 0 0 .91176 0 66.086)" gradientUnits="userSpaceOnUse"/><radialGradient xlink:href="#a" id="aM" cx="495.83" cy="494.19" r="9.875" gradientTransform="matrix(.33512 .26851 -.68724 .85773 669.29 -63.203)" gradientUnits="userSpaceOnUse"/><radialGradient xlink:href="#a" id="aN" cx="477.8" cy="497.6" r="10.854" gradientTransform="matrix(.81404 .26074 -.12723 .3972 152.16 175.37)" gradientUnits="userSpaceOnUse"/><radialGradient xlink:href="#a" id="aO" cx="502.77" cy="534.61" r="6.214" gradientTransform="matrix(.29472 -.11665 .63505 1.6045 15.09 -259.57)" gradientUnits="userSpaceOnUse"/><radialGradient xlink:href="#a" id="aP" cx="503.57" cy="505.33" r="19.932" gradientTransform="matrix(.46939 .54439 -.47232 .40724 505.88 24.64)" gradientUnits="userSpaceOnUse"/><radialGradient xlink:href="#a" id="aQ" cx="505.17" cy="524.33" r="9.749" gradientTransform="matrix(.47719 -.53801 .46008 .40807 22.876 582.25)" gradientUnits="userSpaceOnUse"/><radialGradient xlink:href="#f" id="U" cx="359.22" cy="421.54" r="9.482" gradientTransform="matrix(.70623 .01348 -.01267 .66392 110.87 136.83)" gradientUnits="userSpaceOnUse"/><radialGradient xlink:href="#f" id="ab" cx="359.22" cy="421.54" r="9.482" gradientTransform="matrix(.70623 .01348 -.01267 .66392 110.87 136.83)" gradientUnits="userSpaceOnUse"/><radialGradient xlink:href="#a" id="az" cx="377.5" cy="829.42" r="6.071" gradientTransform="matrix(1 0 0 1.2206 0 -182.96)" gradientUnits="userSpaceOnUse"/><radialGradient xlink:href="#a" id="aE" cx="377.5" cy="829.42" r="6.071" gradientTransform="matrix(1 0 0 1.2206 0 -182.96)" gradientUnits="userSpaceOnUse"/><radialGradient xlink:href="#a" id="aF" cx="377.5" cy="829.42" r="6.071" gradientTransform="matrix(1 0 0 1.2206 0 -182.96)" gradientUnits="userSpaceOnUse"/><radialGradient xlink:href="#a" id="aG" cx="377.5" cy="829.42" r="6.071" gradientTransform="matrix(1 0 0 1.2206 0 -182.96)" gradientUnits="userSpaceOnUse"/><radialGradient xlink:href="#a" id="aH" cx="377.5" cy="829.42" r="6.071" gradientTransform="matrix(1 0 0 1.2206 0 -182.96)" gradientUnits="userSpaceOnUse"/><radialGradient xlink:href="#a" id="aI" cx="377.5" cy="829.42" r="6.071" gradientTransform="matrix(1 0 0 1.2206 0 -182.96)" gradientUnits="userSpaceOnUse"/><radialGradient xlink:href="#a" id="aJ" cx="377.5" cy="829.42" r="6.071" gradientTransform="matrix(1 0 0 1.2206 0 -182.96)" gradientUnits="userSpaceOnUse"/><radialGradient xlink:href="#a" id="aK" cx="377.5" cy="829.42" r="6.071" gradientTransform="matrix(1 0 0 1.2206 0 -182.96)" gradientUnits="userSpaceOnUse"/><radialGradient xlink:href="#a" id="aS" cx="377.5" cy="829.42" r="6.071" gradientTransform="matrix(1 0 0 1.2206 0 -182.96)" gradientUnits="userSpaceOnUse"/><radialGradient xlink:href="#a" id="aT" cx="377.5" cy="829.42" r="6.071" gradientTransform="matrix(1 0 0 1.2206 0 -182.96)" gradientUnits="userSpaceOnUse"/><radialGradient xlink:href="#a" id="aU" cx="377.5" cy="829.42" r="6.071" gradientTransform="matrix(1 0 0 1.2206 0 -182.96)" gradientUnits="userSpaceOnUse"/><filter id="V"><feGaussianBlur stdDeviation=".096"/></filter><filter id="W"><feGaussianBlur stdDeviation=".078"/></filter><filter id="ad" width="1.136" height="1.224" x="-.068" y="-.112"><feGaussianBlur stdDeviation=".69"/></filter><filter id="Y"><feGaussianBlur stdDeviation=".616"/></filter><filter id="Z"><feGaussianBlur stdDeviation=".28"/></filter><filter id="aa"><feGaussianBlur stdDeviation=".3"/></filter><filter id="ae" width="1.253" height="1.153" x="-.127" y="-.076"><feGaussianBlur stdDeviation=".497"/></filter><filter id="af"><feGaussianBlur stdDeviation=".66"/></filter><filter id="ah"><feGaussianBlur stdDeviation=".246"/></filter><filter id="L"><feGaussianBlur stdDeviation=".081"/></filter><filter id="K"><feGaussianBlur stdDeviation=".287"/></filter><filter id="M"><feGaussianBlur stdDeviation=".425"/></filter><filter id="N"><feGaussianBlur stdDeviation=".332"/></filter><filter id="O"><feGaussianBlur stdDeviation=".36"/></filter><filter id="ak"><feGaussianBlur stdDeviation=".273"/></filter><filter id="au" width="1.26" height="1.103" x="-.13" y="-.052"><feGaussianBlur stdDeviation=".368"/></filter><filter id="av"><feGaussianBlur stdDeviation=".342"/></filter><filter id="aw"><feGaussianBlur stdDeviation=".536"/></filter><filter id="ax"><feGaussianBlur stdDeviation=".354"/></filter><filter id="an"><feGaussianBlur stdDeviation=".086"/></filter><filter id="g"><feGaussianBlur stdDeviation="4.047"/></filter><filter id="h" width="1.465" height="1.371" x="-.232" y="-.185"><feGaussianBlur stdDeviation="5.047"/></filter><filter id="i" width="1.233" height="1.255" x="-.116" y="-.127"><feGaussianBlur stdDeviation="3.886"/></filter><filter id="j" width="1.213" height="1.126" x="-.106" y="-.063"><feGaussianBlur stdDeviation="2.313"/></filter><filter id="aW"><feGaussianBlur stdDeviation=".181"/></filter><filter id="H"><feGaussianBlur stdDeviation=".435"/></filter><filter id="F"><feGaussianBlur stdDeviation=".49"/></filter><filter id="k"><feGaussianBlur stdDeviation="2.283"/></filter><filter id="l" width="1.136" height="1.266" x="-.068" y="-.133"><feGaussianBlur stdDeviation="2.53"/></filter><filter id="aX" width="1.2" height="1.062" x="-.1" y="-.031"><feGaussianBlur stdDeviation=".284"/></filter><filter id="m" width="1.117" height="1.202" x="-.058" y="-.101"><feGaussianBlur stdDeviation="1.028"/></filter><filter id="n" width="1.243" height="1.143" x="-.122" y="-.071"><feGaussianBlur stdDeviation="1.194"/></filter><filter id="o" width="1.185" height="1.466" x="-.092" y="-.233"><feGaussianBlur stdDeviation="1.957"/></filter><linearGradient id="a"><stop offset="0" stop-color="#fbc356"/><stop offset="1" stop-color="#d45609"/></linearGradient><linearGradient id="b"><stop offset="0" stop-color="#88a435"/><stop offset="1" stop-color="#d3f082"/></linearGradient><linearGradient id="c"><stop offset="0" stop-color="#77992b"/><stop offset="1" stop-color="#afdd61"/></linearGradient><linearGradient id="d"><stop offset="0" stop-color="#364969"/><stop offset="1" stop-color="#23799a"/></linearGradient><linearGradient id="e"><stop offset="0" stop-color="#609500"/><stop offset="1" stop-color="#2d4c00"/></linearGradient><linearGradient id="w" x1="299.39" x2="297.94" y1="415.48" y2="419.27" gradientUnits="userSpaceOnUse"><stop offset="0" stop-color="#cced78"/><stop offset="1" stop-color="#bf921d"/></linearGradient><linearGradient id="x" x1="317.85" x2="309.64" y1="449.45" y2="449.8" gradientUnits="userSpaceOnUse"><stop offset="0" stop-color="#dceca6"/><stop offset="1" stop-color="#c6ef25"/></linearGradient><linearGradient xlink:href="#a" id="B" x1="241.2" x2="237.73" y1="523.48" y2="525.17" gradientUnits="userSpaceOnUse"/><linearGradient xlink:href="#a" id="D" x1="219.95" x2="222.29" y1="528.75" y2="525.26" gradientUnits="userSpaceOnUse"/><linearGradient xlink:href="#b" id="E" x1="260.12" x2="265.86" y1="570.89" y2="566.96" gradientUnits="userSpaceOnUse"/><linearGradient id="G" x1="269.23" x2="271.3" y1="570.69" y2="569.27" gradientUnits="userSpaceOnUse"><stop offset="0" stop-color="#88aa85"/><stop offset="1" stop-color="#506f8b"/></linearGradient><linearGradient id="I" x1="293.88" x2="272.46" y1="563.12" y2="570.98" gradientUnits="userSpaceOnUse"><stop offset="0" stop-color="#91b43e"/><stop offset="1" stop-color="#d1fc54"/></linearGradient><linearGradient xlink:href="#b" id="J" x1="281.98" x2="308.78" y1="517.09" y2="550.43" gradientUnits="userSpaceOnUse"/><linearGradient xlink:href="#c" id="P" x1="408.96" x2="366.04" y1="652.81" y2="600.84" gradientUnits="userSpaceOnUse"/><linearGradient xlink:href="#d" id="Q" x1="380.21" x2="378.42" y1="606.95" y2="608.34" gradientUnits="userSpaceOnUse"/><linearGradient id="R" x1="332.83" x2="340.3" y1="594.48" y2="588.77" gradientUnits="userSpaceOnUse"><stop offset="0" stop-color="#7c9150"/><stop offset="1" stop-color="#97bb9f"/></linearGradient><linearGradient xlink:href="#d" id="S" x1="312.77" x2="317.46" y1="573.04" y2="568.18" gradientUnits="userSpaceOnUse"/><linearGradient id="T" x1="472.55" x2="548.48" y1="471.13" y2="497.9" gradientTransform="translate(-140)" gradientUnits="userSpaceOnUse"><stop offset="0" stop-color="#e3ef41"/><stop offset=".478" stop-color="#bfed35"/><stop offset="1" stop-color="#4f7a07"/></linearGradient><linearGradient xlink:href="#d" id="ag" x1="357.64" x2="365.86" y1="616.03" y2="609.34" gradientUnits="userSpaceOnUse"/><linearGradient xlink:href="#c" id="ai" x1="388.96" x2="383.66" y1="684.87" y2="677.55" gradientUnits="userSpaceOnUse"/><linearGradient xlink:href="#b" id="aj" x1="352.42" x2="354.58" y1="752.65" y2="751.36" gradientUnits="userSpaceOnUse"/><linearGradient id="al" x1="379.19" x2="369.33" y1="788.18" y2="765.32" gradientUnits="userSpaceOnUse"><stop offset="0" stop-color="#a89e92"/><stop offset="1" stop-color="#6e6892"/></linearGradient><linearGradient xlink:href="#a" id="am" x1="379.93" x2="378.45" y1="757.11" y2="766.84" gradientUnits="userSpaceOnUse"/><linearGradient xlink:href="#a" id="ao" x1="390.22" x2="384.72" y1="760.93" y2="769.86" gradientUnits="userSpaceOnUse"/><linearGradient xlink:href="#a" id="ap" x1="397.25" x2="390.67" y1="786.82" y2="789.34" gradientUnits="userSpaceOnUse"/><linearGradient xlink:href="#a" id="aq" x1="402.8" x2="396.04" y1="808.79" y2="803.7" gradientUnits="userSpaceOnUse"/><linearGradient xlink:href="#a" id="ar" x1="402.8" x2="393.54" y1="822.41" y2="809.82" gradientUnits="userSpaceOnUse"/><linearGradient xlink:href="#a" id="as" x1="390.37" x2="385.87" y1="812.61" y2="805.47" gradientUnits="userSpaceOnUse"/><linearGradient xlink:href="#a" id="at" x1="375.57" x2="380.29" y1="816.78" y2="816.69" gradientUnits="userSpaceOnUse"/><linearGradient xlink:href="#b" id="ay" x1="353.39" x2="355.86" y1="752.3" y2="746.92" gradientUnits="userSpaceOnUse"/><linearGradient id="aL" x1="487.78" x2="486.07" y1="511.39" y2="513.98" gradientUnits="userSpaceOnUse"><stop offset="0" stop-color="#d45609"/><stop offset="1" stop-color="#cabaa0"/></linearGradient><linearGradient id="aR" x1="456.2" x2="455.14" y1="519.28" y2="507.85" gradientUnits="userSpaceOnUse"><stop offset="0" stop-color="#aede2a"/><stop offset="1" stop-color="#d3e88b"/></linearGradient></defs><g style="stroke-width:3.17906141" transform="matrix(.31427 0 0 .31485 .259 1.393)"><rect width="743.244" height="1055.244" x=".378" y="-3.222" rx="28.421" ry="28.413" style="fill:#d45500;fill-opacity:1;stroke:gray;stroke-width:2.40307021;stroke-linecap:butt;stroke-linejoin:miter;stroke-miterlimit:4;stroke-dasharray:none;stroke-opacity:1"/><g style="stroke-width:3.17906141"><g style="stroke-width:3.17906141"><path d="m292.14 560.93 32.5 36.786 44.286 47.143 25 20.714 11.786-3.571-2.143-13.571L289.28 537z" style="fill:#706768;stroke-width:3.17906141;filter:url(#g)" transform="translate(-354.045 -679.076)scale(1.9945)"/><path d="m350.71 568.08 12.857 28.929c17.5-9.286 55-52.143 48.929-79.286z" style="opacity:.73990999;fill:#634e49;stroke-width:3.17906141;filter:url(#h)" transform="translate(-354.045 -679.076)scale(1.9945)"/><path d="M411.43 668.08c4.405-.357 8.81 1.071 6.786 12.857-8.81 14.405-23.69 23.095-39.286 35.714-12.5 6.429-19.286 18.929-31.071 24.643l-9.286-21.429c15.238-6.31 28.69-11.548 45.714-18.929z" style="opacity:.90135001;fill:#8d8b8c;stroke-width:3.17906141;filter:url(#i)" transform="translate(-354.045 -679.076)scale(1.9945)"/><path d="m328.21 723.43 48.571 87.857 3.571-12.143z" style="opacity:.84752999;fill:#a1958f;stroke-width:3.17906141;filter:url(#j)" transform="translate(-354.045 -679.076)scale(1.9945)"/><path d="m306.96 597.01 6.607 15.357-7.321 7.5-7.322-3.393-6.25 1.786-3.571-2.857-40.18-55.536-33.75-33.036-9.642-2.143-.893-3.215 7.143 1.25 9.286 6.072 30.893 29.643 33.393 46.786z" style="fill:#959595;stroke-width:3.17906141;filter:url(#k)" transform="translate(-354.045 -679.076)scale(1.9945)"/><path d="M408.86 522.03c25.085 33.588 60.02 2.273 64.65 3.03 5.977-.42 15.742 6.482 24.749 23.74-.673-4.883 2.946-9.765 2.273-14.647-6.987-5.725-15.994-15.49-22.981-21.214-14.48-1.178-31.231 1.684-45.71.506q-9.343-5.178-18.687-10.354z" style="opacity:.62779996;fill:#a6a5a1;stroke-width:3.17906141;filter:url(#l)" transform="translate(-354.045 -679.076)scale(1.9945)"/><path d="M269.46 410.93c-.625 3.095 2.41 5.655 5.893 5.536 10.506-.715 16.28 3.839 20 5.357 6.605 3.599 11.226 9.252 14.82 13.57l1.43-9.642-23.036-12.143z" style="opacity:.9417;fill:#8c8c8c;stroke-width:3.17906141;filter:url(#m)" transform="translate(-354.045 -679.076)scale(1.9945)"/><path d="m339.46 466.47-9.643-20.714 2.322-6.964-2.322-3.572 3.036-2.143 7.857 1.608 3.929-1.786-.893-3.75-16.071-1.786-6.072 4.465-.535 9.107 6.428 15.893 5.715 10.714z" style="opacity:.75335999;fill:#968b87;stroke-width:3.17906141;filter:url(#n)" transform="translate(-354.045 -679.076)scale(1.9945)"/><path d="m313.21 469.86-.179 12.143 9.108 5.357 30.179 2.679 11.607-13.036-7.322-1.072z" style="opacity:.58296;fill:#8e8d88;stroke-width:3.17906141;filter:url(#o)" transform="translate(-354.045 -679.076)scale(1.9945)"/></g><g style="stroke-width:3.17906141"><path d="m291.49 408.9 3.599 3.41 14.016 2.02 6.692 4.608 1.263-.505-.821-6.187-2.967-1.326-5.24.127h-4.862z" style="fill:#f48e66;stroke-width:3.17906141" transform="translate(-354.045 -679.076)scale(1.9945)"/><path d="M293.01 410.35c4.293 2.61 8.586 1.81 12.69 3.283 7.282-3.178 8.692 1.031 9.723 3.03.589 1.179.989 2.294 1.578 3.473l-21.466-5.556z" style="fill:#dfb197;stroke-width:3.17906141" transform="translate(-354.045 -679.076)scale(1.9945)"/><path d="m280.89 407.76-.947 4.672 6.882-.126 10.67 1.704-5.493-5.114z" style="fill:url(#p);stroke-width:3.17906141" transform="translate(-354.045 -679.076)scale(1.9945)"/><path d="M306.08 412.62c3.81-2 6.166-1.473 9.533.631.106-2.778-3.072-3.661-4.609-5.492-1.641 1.62-4.672 2.294-4.924 4.861" style="fill:#cf5c3a;stroke-width:3.17906141" transform="translate(-354.045 -679.076)scale(1.9945)"/><path d="M314.2 411.2c1.935 3.036 2.44 6.027 2.054 8.304l3.214 9.285 3.571 3.036 2.947-1.071-1.965-8.572-4.107-2.946c-1.19-2.679-2.247-6.072-5.714-8.036z" style="fill:#cf5c3a;stroke-width:3.17906141" transform="translate(-354.045 -679.076)scale(1.9945)"/><path d="M296.88 413.7c17.5.625 13.482 4.018 19.286 4.821 1.696 1.4 2.321 5.655 2.41 8.482z" style="fill:#e9ff96;stroke-width:3.17906141" transform="translate(-354.045 -679.076)scale(1.9945)"/><path d="m322.41 422.27 1.964 2.679 7.366 4.24 4.375.402.983-2.232-.76-1.785-6.785-1.875z" style="fill:url(#q);stroke-width:3.17906141" transform="translate(-354.045 -679.076)scale(1.9945)"/><path d="m317.06 413.22 3.978 7.481 2.115.348 5.082-10.291.446-2 .722-7.692-.821-.284-3.472 4.23z" style="fill:url(#r);stroke-width:3.17906141" transform="translate(-354.045 -679.076)scale(1.9945)"/><path d="M328.71 408.66c-1.265 11.027-1.458 12.812 4.643 16.027l-8.75-2.991-.223-3.706 2.589-4.866c.536-1.592 1.205-2.872 1.741-4.464" style="fill:url(#s);stroke-width:3.17906141" transform="translate(-354.045 -679.076)scale(1.9945)"/><path d="M313.39 399.77c4.42 4.792 9.152 5.878 13.661-1.83l-1.116 4.687-6.295 8.527-2.544 2.59-1.384-1.474z" style="fill:url(#t);stroke-width:3.17906141" transform="translate(-354.045 -679.076)scale(1.9945)"/><path d="M310.18 409.99c3.16.106 3.865 1.841 5.663 3.71-.905-3.661-1.475-7.77-2.38-11.432l-8.207-14.142-2.4-1.262-.694 3.156 4.42 13.385c1.199 2.084 2.398 4.502 3.598 6.585z" style="fill:url(#u);stroke-width:3.17906141" transform="translate(-354.045 -679.076)scale(1.9945)"/><path d="M283.16 406.69c11.785.484 17.825-4.146 17.741-16.162l5.24 13.321-.505 7.008q-2.02.03-4.04.063l-7.198-1.073-4.861-1.01z" style="fill:url(#v);stroke-width:3.17906141" transform="translate(-354.045 -679.076)scale(1.9945)"/><path d="M279.31 412.11c8.102-2.799 13.981.121 16.541 1.073 12.935 4.948 5.155 3.8 17.867 9.092-.8 3.24-3.824 9.872-4.37 8.441.082-1.007-.628-2.588-1.239-3.279-3.156-2.315-5.755-4.741-8.912-7.056l-12.185-4.862z" style="fill:url(#w);stroke-width:3.17906141" transform="translate(-354.045 -679.076)scale(1.9945)"/><path d="M326.61 395.04c1.28 6.518-7.708 15-9.018 18.214 4.078-.595 9.137-11.28 11.43-11.964.059 2.679-1.846 6.696-.358 7.768 1.637-4.643 4.033-7.098 7.902-9.152-3.393-1.458-6.563-3.408-9.956-4.866z" style="fill:#cc4509;stroke-width:3.17906141" transform="translate(-354.045 -679.076)scale(1.9945)"/><path d="M336.27 427.09c.685-.7 1.391-1.622 2.076-2.321-2.56 1.443-13.065-3.364-12.768-4.242-1.324-2.202 1.414-4.672 2.054-8.883-3.334 1.503-4.301 9.256-5.849 8.526-2.455-1.547-3.393-7.47-5.089-7.723-1.488.923 2.693 5.908 3.304 9.197.625 1.25 1.875.401 2.812 1.339 4.003.223 13.676 2.902 13.46 4.107z" style="fill:#cc4509;stroke-width:3.17906141" transform="translate(-354.045 -679.076)scale(1.9945)"/><path d="M324.32 433.27c3.187-.282 7.58-5.787 12.821-1.65l-.758-3.787c-1.237 1.733-3.992 1.011-5.05.378-1.934-1.706-3.957-3.323-5.935-3.914l-2.778-1.389c2.546 3.275.047 6.863 1.7 10.362zM295.36 384.95c7.376 3.823 11.153 26.945 8.214 25.536-6.1-1.533-9.657-.967-12.32-1.295 5.594 1.816 13.154 3.765 14.91 3.349 1.4-1.518 2.976-2.768 5.268-2.411-4.434-7.232-6.905-14.643-8.214-21.964 4.286 4.018 10.357 16.07 10.446 18.482-.357 2.351-.268 3.363.536 4.375.773 1.458 1.637 3.452 2.857 3.303-1.429-4.583-.179-7.559-2.947-13.75-3.393-6.25-9.062-13.125-7.723-19.018-3.81.774-7.217 2.62-11.027 3.393z" style="fill:#cc4509;stroke-width:3.17906141" transform="translate(-354.045 -679.076)scale(1.9945)"/><path d="M280.06 404.22c2.173 2.934 7.829 3.367 11.743 5.05-3.213.936-8.97-2.37-10.353.082-.21-1.725-1.18-3.406-1.39-5.132zM275.98 414.78c8.097-1.922 27.625 8.412 33.221 13.65 1.816-8.988-28.911-12.44-27.988-17.857-1.429 1.34-3.804 2.868-5.233 4.207z" style="fill:#cc4509;stroke-width:3.17906141" transform="translate(-354.045 -679.076)scale(1.9945)"/><path d="M313.53 422.28c-4.903 1.242-6.334 23.823-6.377 28.347-.715 9.05.678 15.859 2.778 19.004 3.952 4.202 1.855 6.418 5.493 5.24l12.438-8.712-1.2-15.215-2.399-8.84-1.704-7.891c-.905-2.252-1.81-4.646-2.873-6.755-1.031-2.42-2.851-4.84-6.155-5.177z" style="fill:url(#x);stroke-width:3.17906141" transform="translate(-354.045 -679.076)scale(1.9945)"/><path d="M308.48 466.54c.337 2.441 1.936 4.82 4.04 7.134 1.979-.673 4.02-1.915 4.23-3.346-.673-.905-2.609.021-3.914.884-1.389-.547-2.462-3.493-4.356-4.672" style="fill:#8da545;stroke-width:3.17906141" transform="translate(-354.045 -679.076)scale(1.9945)"/><path d="M333.04 462.09c1.389 3.872 8.264 1.708 12.368 2.55 2.083.526 3.536 2.188 5.303 3.283l.253 4.103c-9.576-1.03-19.731-2.553-29.307-3.584 4.516-.746 5.778-2.827 2.263-4.279 2.778-.19 6.342-1.884 9.12-2.073z" style="fill:#539589;stroke-width:3.17906141" transform="translate(-354.045 -679.076)scale(1.9945)"/><path d="M324.83 473.48c-7.744-.82-6.082 2.147-10.922 1.705 4.82-2.357 2.63-6.672 8.776-6.882 2.167-.337 4.398-.105 6.313.316l8.46 1.515z" style="fill:#577f5c;stroke-width:3.17906141" transform="translate(-354.045 -679.076)scale(1.9945)"/><path d="M323.88 464.2c4.25-.338 7.43 2.181 11.68 1.263-6.23-6.545-10.691-23.381-11.49-27.022.358-2.526.842-5.682-.063-6.63-1.137-3.724-2.336-5.492-4.356-4.356 2.483 4.567 4.524 16.141 5.745 23.928 2.21 6.798.315 10.501-1.516 12.816z" style="fill:#384884;stroke-width:3.17906141" transform="translate(-354.045 -679.076)scale(1.9945)"/><path d="m325.94 472.72 27.188 4.464-1.562-6.384-23.348-.178-2.813 1.696z" style="fill:#2664af;stroke-width:3.17906141" transform="translate(-354.045 -679.076)scale(1.9945)"/><path d="m352.16 477.21-29.294-3.914c-2.088-1.263 1.672-3.285 3.914-3.788l24.117.883v1.01c-8.039.337-23.935-.71-24.117 1.01.871.395 22.143 2.307 25.38 4.8z" style="fill:#2f434a;stroke-width:3.17906141" transform="translate(-354.045 -679.076)scale(1.9945)"/><path d="M342.1 464.42c12.169 2.34 5.964 11.044 9.688 12.768l8.214.893 1.785-15.18c-6.547.477-13.14 1.043-19.687 1.519z" style="fill:#645478;stroke-width:3.17906141" transform="translate(-354.045 -679.076)scale(1.9945)"/><path d="M254.38 529.86c2.351 3.185 4.345 3.423 8.214-3.036-.595 4.762-.744 10.327-1.339 15.09l-4.107 3.124z" style="fill:url(#y);stroke-width:3.17906141" transform="translate(-354.045 -679.076)scale(1.9945)"/><path d="m250.18 513.43-3.304 12.232 7.768 17.232.893-2.59-2.59-13.928.358-9.911.09-2.41z" style="fill:url(#z);stroke-width:3.17906141" transform="translate(-354.045 -679.076)scale(1.9945)"/><path d="M237.23 507.36c4.851 18.72 10.06 12.887 11.071 4.464l2.768 1.965c-2.44 4.821-3.453 10.268-2.768 15.268l-.357 11.607-4.91-7.233-6.608-23.66z" style="fill:url(#A);stroke-width:3.17906141" transform="translate(-354.045 -679.076)scale(1.9945)"/><path d="m234.38 529.24 10.625 12.054 3.482 1.518-6.607-18.661-6.786-17.59-1.875-1.338-.446 11.696.268 6.428z" style="fill:url(#B);stroke-width:3.17906141" transform="translate(-354.045 -679.076)scale(1.9945)"/><path d="M218.93 518.61c6.577 1.042 11.637-1.667 11.429-7.59l5.268 20z" style="fill:url(#C);stroke-width:3.17906141" transform="translate(-354.045 -679.076)scale(1.9945)"/><path d="M210 524.15c9.196 1.458 15.089 11.131 19.821 12.946l3.84-7.857-18.394-11.161z" style="fill:url(#D);stroke-width:3.17906141" transform="translate(-354.045 -679.076)scale(1.9945)"/><path d="m265.29 560.42 1.389-15.026c-1.347-6.019-2.069-12.038-3.416-18.056-6.394 4.903-1.627 12.663-4.539 13.637-2.284 2.163-1.083-4.51-3.157-9.344 0 0-5.04-8.66 1.01-17.678-2.518 1.882-2.984-.9-4.688.145 2.231 2.911-2.237 12.08 2.163 25.614-1.978-4.798-3.956-4.596-5.934-14.395-1.456 2.427-.322 8.426-.884 10.228-.207 2.65-2.02 3.872-3.03 5.809zM225.8 499.77c5.64 6.25 3.869 19.107 7.59 23.125 1.28-2.47-.745-11.548.356-15.982 2.947 2.41 5.625 15.268 9.911 22.768.149-3.929-1.577-6.16-2.232-8.84 1.22.477 3.69.953 3.393-.178-6.429-1.845-9.286-17.574-7.857-23.973-3.87.536-7.292 2.545-11.161 3.08zM214.29 521.47c5.06-1.34 7.44 2.054 8.036 3.125 1.875 3.036 5.893 1.25 9.91 4.286 1.31.863 3.78.744-.357-2.232-7.066-3.354-15.933-10.3-17.589-13.393.15 2.113-1.666 9.137 0 8.214z" style="fill:#cc4509;stroke-width:3.17906141" transform="translate(-354.045 -679.076)scale(1.9945)"/><path d="m289.64 610.76.268-5.893-7.232-14.91q-5.135-8.393-10.268-16.787l-9.375-12.857-9.018-11.429-4.554-4.286c-4.569-3.992-3.266-11.205-8.214-13.304-2.796-3.503-9.253-4.608-11.607-3.125-4.652-.25-5.769 2.468-4.107 4.554l7.678 7.946 18.036 18.304z" style="fill:url(#E);stroke-width:3.17906141;filter:url(#F)" transform="translate(-354.045 -679.076)scale(1.9945)"/><path d="M248.12 544.68c16.071 16.786 30.268 37.411 39.643 58.661-1.845-9.137-4.494-18.631-9.286-27.411l-20.625-26.696c-2.797-2.857-7.916-6.071-9.732-4.554z" style="fill:url(#G);stroke-width:3.17906141;filter:url(#H)" transform="translate(-354.045 -679.076)scale(1.9945)"/><path d="M289.8 612.21c-8.2-11.585-16.287-21.272-24.621-32.344q-8.447-10.714-15-21.429c-9.098-8.133-23.752-23.148-24.643-25.536 9.192 7.376 22.046 21.822 26.25 25.536l38.036 51.429c.12 1.071-.141 1.272-.022 2.344z" style="fill:#89a14d;stroke-width:3.17906141" transform="translate(-354.045 -679.076)scale(1.9945)"/><path d="M257.84 548.93c8.164 9.792 16.06 18.958 22.35 30.178-1.71-.365-2.525-2.694-3.788-4.04-6.187-8.713-18.09-22.515-18.562-26.139z" style="fill:#506f8b;stroke-width:3.17906141" transform="translate(-354.045 -679.076)scale(1.9945)"/><path d="M262.86 513.79c-2.726 28.135 9.494 47.143 13.036 57.321 5.03 13.512 8.81 22.381 13.214 33.571-.71 4.733.223 7.967 1.696 8.482 1.756 1.399 3.512 1.19 5.268 1.786l8.572-1.34 3.75-4.82-1.072-9.465-4.643-21.161-4.91-16.25-6.518-17.232-6.786-14.911-4.018-5.982-2.41-2.232-2.5-2.768-12.68-5z" style="fill:url(#I);stroke-width:3.17906141" transform="translate(-354.045 -679.076)scale(1.9945)"/><path d="M277.92 521.27c10.901 7.324 14.1 21.592 17.173 31.82 2.778 6.271 5.118 12.543 6.06 18.814-.568 2.47-2.052-1.823-2.777-4.04-5.39-18.746-13.146-37.224-20.456-46.594z" style="fill:#687e33;stroke-width:3.17906141" transform="translate(-354.045 -679.076)scale(1.9945)"/><path d="m280 521.47 6.16 7.59 16.25 21.606 13.483 11.34 12.054 10.535 1.518.268.535-6.696-13.839-11.875-15-18.304-5.625-8.572-10-14.464-3.303 1.607-3.036 4.733z" style="fill:url(#J);stroke-width:3.17906141" transform="translate(-354.045 -679.076)scale(1.9945)"/><path d="M262.5 517.18c.565 5.796 6.443-4.734 20.714 8.214 1.125-2.62-6.696-7.53 2.679-11.964-3.991-6.577-6.647-8.507-12.68-8.214-5.089.863-10.535 6.548-10.713 11.964z" style="fill:#a5d62d;stroke-width:3.17906141" transform="translate(-354.045 -679.076)scale(1.9945)"/><path d="m333.1 730.63-7.197-7.45c-1.263-6.65 1.641-10.775 6.818-13.51 6.65-4.462 12.416-11.197 19.951-15.28l-10.48 26.77-4.924 8.712z" style="fill:#d3f082;stroke-width:3.17906141" transform="translate(-354.045 -679.076)scale(1.9945)"/><path d="m339.13 726.4 2.746.537 4.294 1.2-1.547-3.726-1.168-2.746-2.084-.884c-1.599-1.042-.2 1.01-1.01 1.61z" style="fill:#9ca749;stroke-width:3.17906141" transform="translate(-354.045 -679.076)scale(1.9945)"/><path d="m350.8 745.09-.357-4.286-8.66-14.196c-1.532-.839-3.063-.51-4.688.134-1.176.774-6.77 2.621-3.527 2.322l4.643 7.544 7.857 6.697z" style="fill:#cae570;stroke-width:3.17906141;filter:url(#K)" transform="translate(-354.045 -679.076)scale(1.9945)"/><path d="M335 728.17c.952-1.369 3.512-2.381 2.857-4.107-.223-.774.536-1.816 2.946-2.321-.014 2.946-.699 6.383-5.803 6.428z" style="fill:#7b7f2b;stroke-width:3.17906141;filter:url(#L)" transform="translate(-354.045 -679.076)scale(1.9945)"/><path d="M340.18 727.81c.029-.859.373-1.465 1.696-1.25 8.615 9.741 15.714 23.333 23.571 35 3.14 3.377 2.62 5.238 3.929 7.857.298 1.132.5 4.19-2.232 4.91q-7.68-14.24-15.357-28.481l-4.91-9.732c-3.59-6.777-6.138-6.167-6.697-8.304z" style="fill:#e5edd5;stroke-width:3.17906141;filter:url(#M)" transform="translate(-354.045 -679.076)scale(1.9945)"/><path d="M347.32 720.44c-2.277 2.961-1.071 5.744-.268 9.196-1.592-2.202-2.961-4.985-3.705-7.276 1.994-.268 2.693-.804 3.973-1.92" style="fill:#4e3845;stroke-width:3.17906141" transform="translate(-354.045 -679.076)scale(1.9945)"/><path d="M341.62 726.52c1.305-.631 2.42-.252 4.546 1.452 6.545 10.775 14.226 21.55 21.339 32.325-1.705-.463-2.21.779-3.473.253-1.34-.184-14.752-25.452-22.413-34.03z" style="fill:#78b4d6;stroke-width:3.17906141;filter:url(#N)" transform="translate(-354.045 -679.076)scale(1.9945)"/><path d="M346.92 729.37c6.966 10.333 14.437 20.603 20.898 30.999-3.43-.19-9.638-12.501-14.458-18.751-3.472-4.967-10.607-15.994-6.44-12.248z" style="fill:#6b757f;stroke-width:3.17906141" transform="translate(-354.045 -679.076)scale(1.9945)"/><path d="M376.16 802.6c.274 4.125-1.22 12.164-.126 12.753 3.788-.61 5.619-5.387 6.44-11.49.673-2.23 1.03-7.492-1.768-10.859-3.957-6.145-7.219-13.237-13.385-18.435-.54-6.005-4.127-8.856-7.324-16.541-2.483-5.387-5.408-10.586-9.344-15.784-1.013-.38-.631 1.368 0 2.904-1.6-2.02-3.232-3.072-4.798-3.41l9.596 22.477c2.273 4.63 5.872 9.386 9.66 13.51z" style="fill:#d0e95a;stroke-width:3.17906141;filter:url(#O)" transform="translate(-354.045 -679.076)scale(1.9945)"/><path d="M342.57 745.28c3.346 6.271 8.397 13.237 12.879 18.814.547-1.705 1.978-2.462 3.346-2.083-2.652-6.461-6.566-12.606-10.607-18.246-3.514-4.262-4.314.063-5.619 1.515z" style="fill:#88a435;stroke-width:3.17906141" transform="translate(-354.045 -679.076)scale(1.9945)"/><path d="M336.82 728.86c.59.716-.021 1.557-1.073 2.147.2 1.75 7.716 7.201 11.932 12.943-.695.989-3.536.273-5.114 1.452-2.904-3.115-7.64-10.712-10.038-16.162.042-.947 2.925-1.326 4.293-.38z" style="fill:#adcb2d;stroke-width:3.17906141" transform="translate(-354.045 -679.076)scale(1.9945)"/><path d="m345.71 582.9 3.393 4.821 46.429 59.643 4.107 6.072 5.178 8.214 5-1.071 9.822-3.215-1.964-3.571-29.107-33.571-33.393-39.107-3.393-2.5z" style="fill:url(#P);stroke-width:3.17906141" transform="translate(-354.045 -679.076)scale(1.9945)"/><path d="M416.56 652.59c-15.696-22.642-34.745-42.931-47.856-63.64l-9.344-7.197c-1.852.757-2.567 1.767-2.147 3.409 19.151 25.759 39.06 47.856 59.346 67.428z" style="fill:url(#Q);stroke-width:3.17906141" transform="translate(-354.045 -679.076)scale(1.9945)"/><path d="M369.34 569.73c-2.42 2.61-6.04 4.714-6.124 8.018 3.073 7.808 11.561 20.172 18.989 30.315-7.534-8.355-16.759-20.95-22.714-24.949-1.094-.021-1.431 1.158-1.578 2.967-1.41.38-4.146-3.409-5.935-6.06z" style="fill:#1d1f4f;stroke-width:3.17906141" transform="translate(-354.045 -679.076)scale(1.9945)"/><g style="stroke-width:3.17906141"><path d="m417.26 491.47-5.682 16.036-7.64 14.584-7.45 10.67-9.596 11.049-10.543 10.48-10.733 14.71-6.376 7.008c4.356-2.82 6.755-5.388 13.637-7.892 5.26-4.02 6.608-6.46 15.215-12.816 5.24-5.535 8.397-11.196 14.205-16.415 3.935-6.377 6.292-4.23 11.806-20.456 2.757-8.67 4.314-19.55 3.156-26.958z" style="fill:#71501b;stroke-width:3.17906141" transform="translate(-354.045 -679.076)scale(1.9945)"/><path d="M361.96 573.97c4.74-3.467 13.647-7.628 15.357-9.643.453-1.017.906-5.633-.536-5.893-4.056 5.684-10.386 9.79-14.82 15.536zM380.39 560.73c5.009-2.588 11.28-9.28 12.753-11.554.231-2.883-.673-4.567-2.715-4.293-2.75.64-5.841 7.607-10.417 11.617-.631 1.473-.694 4.209.379 4.23M396.36 544.13c2.862-1.515 8.06-7.702 8.776-9.28-.021-3.473-1.368-5.241-2.336-5.115-1.62-.126-4.314 6.44-6.945 9.85-.842 2.02-.421 4.987.505 4.545M415.99 507.38c-2.168 1.452-7.176 14.395-10.859 19.509.126 1.705 2.147 4.42 3.788 3.599 4.747-8.92 8.707-21.663 7.071-23.107z" style="fill:#18192d;stroke-width:3.17906141" transform="translate(-354.045 -679.076)scale(1.9945)"/></g><path d="M297.87 530.74c5.766 12.922 17.593 26.222 30.557 34.977 1.726-3.199-.337-8.67-2.02-12.627z" style="fill:#9b9bbf;stroke-width:3.17906141" transform="translate(-354.045 -679.076)scale(1.9945)"/><g style="stroke-width:3.17906141"><path d="M311.25 540.49c-2.946-4.077-9.732-11.815-28.839-31.875 5.863 11.756 19.494 29.048 21.518 30.268 5.238 8.363 12.44 14.94 18.393 12.5-2.976-4.97-6.131-7.887-11.071-10.893z" style="fill:#23799a;stroke-width:3.17906141" transform="translate(-354.045 -679.076)scale(1.9945)"/><path d="M335.1 552.39c-1.934 4.405-4.058 9.946-5.993 14.351-1.431-2.795-.78-7.357-2.59-10.089-3.373-5.064-9.84-11.012-15.803-16.518 5.309 3.543 11.503 6.519 16.686 12.524 1.24.605 5.512 1.084 7.7-.268z" style="fill:#1d1f4f;stroke-width:3.17906141" transform="translate(-354.045 -679.076)scale(1.9945)"/></g><path d="M329.44 592.68c2.988 4.546 6.482 6.945 11.364 10.291 2.23-6.04 4.146-11.953 6.377-17.993l-2.084-2.02-11.743.82c-1.683 2.526-5.703 7.45-3.914 8.902z" style="fill:url(#R);stroke-width:3.17906141" transform="translate(-354.045 -679.076)scale(1.9945)"/><path d="M318.07 582.64c3.725 4.02 5.556 7.408 10.607 9.091 5.156-5.66.716-12.206.505-18.94-3.984-4.605-8.468-7.765-17.299-14.016l-18.562-13.385 16.415 24.75c2.778 4.166 4.104 6.755 8.334 12.5z" style="fill:url(#S);stroke-width:3.17906141" transform="translate(-354.045 -679.076)scale(1.9945)"/><path d="M353.93 434.51c.974 5.179-.262 12.314 1.786 15.536-1.072 8.566.13 12.208 3.035 16.607 1.813 4.48-2.182 15.085-5.357 21.964l-3.72 9.28c-1.535 3.332-2.374 6.6-2.708 10.185-2.773 3.602-2.262 8.214-3.393 12.32-2.554 6.25-3.909 12.437-4.822 18.75-2.42 4.815-4.462 9.881-5.178 14.821-6.76 11.67-5.374 25.867-6.072 34.822 1.683 3.243 4.818-2.794 7.322-4.286-2.015 1.991-7.187 6.382-3.393 7.678 2.146.82 4.167-2.023 6.25-3.035 5.218-2.374 10.373-5 13.57-7.5 3.23-1.407 7.532-3.824 8.93-5.358 6.471-6.893 12.249-13.85 17.143-21.25 4.619-3.966 8.418-8.627 11.964-13.036 5.57-4.754 9.435-9.509 11.786-14.643 3.755-4.1 6.31-8.641 7.857-12.679 2.58-3.018 3.776-6.612 4.464-9.464l2.86-9.82c1.071-3.155 2.585-4.226 3.214-9.464l3.04-8.93c2.064-4.044 3.37-8.214 4.107-12.321 1.286-3.568 2.067-8.272 1.965-10.893.949-6.25 2.15-12.625.954-18.748 2.076-.635 2.89-2.658 3.198-4.177l-14.9-20.834c-8.754-7.576-13.938-22.295-26.264-22.728-13.45.792-23.688 21.048-28.032 24.875h3.283l-13.51 17.3c-1.496 2.054-.592 4.298.627 5.027z" style="fill:url(#T);stroke-width:3.17906141" transform="translate(-354.045 -679.076)scale(1.9945)"/><g style="stroke-width:3.17906141"><g style="stroke-width:3.17906141"><path d="M353.05 432c6.06-6.23 11.364-13.469 15.152-20.203-6.86-1.6-12.332-.547-15.279 3.157-3.746 4.672-3.451 10.985.126 17.046z" style="fill:url(#U);stroke-width:3.17906141" transform="scale(-1.9945)rotate(-73.092 -282.245 581.094)"/><path d="M350.44 421.4c.33-4.762 2.872-8.003 7.116-9.366 1.062 2.444 1.19 6.254.208 7.693-1.164 1.295-4.63 2.22-7.324 1.673" style="stroke-width:3.17906141;filter:url(#V)" transform="scale(-1.9945)rotate(-73.092 -282.245 581.094)"/><path d="M353.04 431.96c6.15-6.143 11.163-13.265 15.134-20.134l-.446-.09c-4.276 6.671-9.278 13.53-14.911 19.822z" style="stroke-width:3.17906141;filter:url(#W)" transform="scale(-1.9945)rotate(-73.092 -282.245 581.094)"/></g><path d="M432.58 430.89c-3.506 9.816-15.137 9.997-20.188-.904 6.734 0 11.969-2.504 13.652-6.797 2.172 3.325 4.149 5.126 6.535 7.701z" style="opacity:.86995999;fill:url(#X);stroke-width:3.17906141;filter:url(#Y)" transform="translate(-354.045 -679.076)scale(1.9945)"/></g><g style="stroke-width:3.17906141"><path d="M364.03 412.05c5.261-8.123 15.385-21.016 20.329-22.097-1.726 5.766-9.512 13.048-14.268 19.572-2.525-.168-3.157 2.694-6.06 2.525z" style="opacity:.90135001;fill:#abd253;stroke-width:3.17906141;filter:url(#Z)" transform="translate(-354.045 -679.076)scale(1.9945)"/><path d="M384.82 393.7c0 .641-.56 1.16-1.25 1.16s-1.25-.519-1.25-1.16.56-1.16 1.25-1.16 1.25.519 1.25 1.16" style="fill:#5a6824;stroke-width:3.17906141" transform="translate(-354.045 -679.076)scale(1.9945)"/><path d="M384.82 393.7c0 .641-.56 1.16-1.25 1.16s-1.25-.519-1.25-1.16.56-1.16 1.25-1.16 1.25.519 1.25 1.16" style="fill:#5a6824;stroke-width:3.17906141" transform="translate(-321.682 -679.076)scale(1.9945)"/><path d="M415.68 410.66c-2.178-1.18-4.535-1.556-7.071-1.263 1.641 2.766.694 6.513 4.924 8.965 1.859.166 3.583-1.23 3.03-3.788-.977-.437-2.268-1.366-2.398-2.651-.075-.6.519-.887 1.515-1.263" style="opacity:.85202002;fill:#b8e236;stroke-width:3.17906141;filter:url(#aa)" transform="translate(-354.045 -679.076)scale(1.9945)"/></g><g style="stroke-width:3.17906141"><g style="stroke-width:3.17906141"><path d="M353.05 432c6.06-6.23 11.364-13.469 15.152-20.203-6.86-1.6-12.332-.547-15.279 3.157-3.746 4.672-3.451 10.985.126 17.046z" style="fill:url(#ab);stroke-width:3.17906141" transform="translate(-354.045 -679.076)scale(1.9945)"/><path d="M350.44 421.4c.33-4.762 2.872-8.003 7.116-9.366 1.062 2.444 1.19 6.254.208 7.693-1.164 1.295-4.63 2.22-7.324 1.673" style="stroke-width:3.17906141;filter:url(#V)" transform="translate(-354.045 -679.076)scale(1.9945)"/><path d="M353.04 431.96c6.15-6.143 11.163-13.265 15.134-20.134l-.446-.09c-4.276 6.671-9.278 13.53-14.911 19.822z" style="stroke-width:3.17906141;filter:url(#W)" transform="translate(-354.045 -679.076)scale(1.9945)"/></g><path d="M352.95 431.96c-.774 5.179 8.274 9.554 18.125 5.938 4.167-1.37 6.726-3.72 6.071-6.786-4.107-4.91-13.66-7.277-17.589-6.563-2.321 2.798-4.285 4.613-6.607 7.411z" style="opacity:.72646;fill:url(#ac);stroke-width:3.17906141;filter:url(#ad)" transform="translate(-354.045 -679.076)scale(1.9945)"/></g><path d="M425.4 438.06c2.736.59 3.893 1.494 3.662 2.525-3.178 5.156-3.452 12.522-5.177 13.006-1.957.463-1.831-1.852-1.515-4.293-.632-2.357 4.608-6.86 3.535-7.07-2.378-.611-4.63-2.105-6.25-4.23 2.062.357 3.998.651 5.745.062z" style="opacity:.56502003;fill:#2b4d10;stroke-width:3.17906141;filter:url(#ae)" transform="translate(-354.045 -679.076)scale(1.9945)"/><path d="M361.61 422.36c3.69-3.214 6.131-6.964 8.036-12.143 7.262 1.31 10.238 8.869 8.75 20.357-2.917 1.369-12.083-4.048-16.786-8.214z" style="opacity:.57848002;fill:#7dbb02;stroke-width:3.17906141;filter:url(#af)" transform="matrix(2.0689 -.20242 .21794 1.92154 -474.526 -571.352)"/><g style="stroke-width:3.17906141"><path d="m334.36 551.01 24.875-76.708c-2.441 4.967-6.019 9.176-9.028 13.763-3.094 4.609-5.935 9.218-7.955 13.826-1.031 5.956-5.85 10.964-6.503 17.488-1.579 7.218-1.39 14.563-2.084 21.845-.084 3.262.085 6.524.695 9.786" style="fill:#fde577;stroke-width:3.17906141" transform="translate(-354.045 -679.076)scale(1.9945)"/><path d="M354.82 481.44c-3.051 3.872-6.734 9.575-7.829 11.806.842.631 1.873.568 2.147 0 2.462-3.81 5.619-9.45 5.682-11.806" style="fill:#436e74;stroke-width:3.17906141" transform="translate(-354.045 -679.076)scale(1.9945)"/><path d="M346.42 495.2c-3.388 3.178-5.766 9.828-6.377 13.321 3.6 1.073 5.051-1.263 5.683-3.41-.59-3.745 1.852-7.933.694-9.911z" style="fill:#386876;stroke-width:3.17906141" transform="translate(-354.045 -679.076)scale(1.9945)"/><path d="M338.4 511.3c-2.02 4.483-3.914 12.248-3.41 14.395 1.41 1.073 3.01 1.83 3.852.379 2.062-3.073 3.24-6.777 3.535-10.165-.189-1.852-2.777-5.472-3.977-4.609" style="fill:#346f81;stroke-width:3.17906141" transform="translate(-354.045 -679.076)scale(1.9945)"/><path d="M334.36 529.55c-1.094 3.493-.99 13.805-.063 20.708 1.873.337 3.43-11.701 3.914-17.551.358-1.305-1.873-3.178-3.851-3.157z" style="fill:#3e7977;stroke-width:3.17906141" transform="translate(-354.045 -679.076)scale(1.9945)"/></g><path d="M342.57 604.3c-3.199-1.431-4.945-4.567-5.05-6.25-2.673-2.926 6.839-13.742 11.111-13.258 15.3 17.678 39.691 51.139 42.111 55.685l-6.692-.38-15.72-11.931z" style="fill:url(#ag);stroke-width:3.17906141;filter:url(#ah)" transform="translate(-354.045 -679.076)scale(1.9945)"/><path d="M342.44 604.11c15.03 17.507 33.362 35.888 55.053 48.74 3.153 3.329 3.717 6.3 3.03 7.576-4.897 2.074-10.019 4.907-14.202 7.606 9.444-4.758 18.485-4.917 19-7.353-3.701-4.398-5.527-8.439-6.818-12.122-3.562-3.803-7.446-6.427-10.354-12.627-1.587-.508.04 2.645-1.01 3.03-12.086-12.117-19.151-24.728-29.294-36.618 4.652 10.543 12.696 20.371 20.249 30.468-9.837-3.8-18.553-16.826-25.552-25.417-1.939-3.416-7.538-4.867-10.102-3.283zM317.31 562.69c-35.019-30.936-9.428-18.94-39.143-41.29 6.692 5.009 11.238 15.321 17.046 32.451 7.66 11.154 16.583 22.181 26.011 32.325-5.893-10.228-3.199-15.279-5.935-17.804-9.007-5.682-16.12-13.258-19.95-20.456 5.892 7.45 14.31 11.364 21.97 14.773z" style="fill:#1d1f4f;stroke-width:3.17906141" transform="translate(-354.045 -679.076)scale(1.9945)"/><path d="M354.75 714.4c-5.408 3.493-7.092 5.345-8.46 7.829-1.557 1.43-6.46-.99-6.377-2.715-.252-1.852 19.698-12.416 29.358-18.625-4.714 4.504-8.417 9.26-14.52 13.51z" style="fill:#7b7f2b;stroke-width:3.17906141" transform="translate(-354.045 -679.076)scale(1.9945)"/><path d="M290.67 613.2c1.712 1.144 4.405 2.69 8.081 3.03 4.518.45 8.321-1.066 10.607-4.545 1.216-.987 1.092-5.189-.148-8.631-1.87-11.126-4.721-23.19-9.448-34.806 1.598 13.444 7.17 29.434 7.07 39.396-3.136 1.902-3.906 5.232-6.06 5.303-2.385-.228-4.86.927-10.102.253z" style="fill:#687e33;stroke-width:3.17906141" transform="translate(-354.045 -679.076)scale(1.9945)"/><g style="stroke-width:3.17906141"><path d="M340.71 718.97c6.369-6.726.774-18.095 6.429-18.75l39.82-30.536 17.68-7.321 3.08-1.94 11.869.947-2.526 4.736-7.008 8.333-14.52 11.87-22.919 14.772-19.572 10.922z" style="fill:url(#ai);stroke-width:3.17906141" transform="translate(-354.045 -679.076)scale(1.9945)"/><path d="M347.24 701.46c-3.625-1.507 9.446-10.068 20.329-18.183 7.399-5.569 11.717-12.298 20.456-16.036 5.065-3.081 10.933-5.315 16.668-6.566 1.172-.23 2.255.701 1.642 2.525-7.642 2.443-15.506 4.84-21.718 9.47.943.835 6.932-1.59 7.563-1.291-4.278 4.628-9.806 5.775-14.887 11.52-8.082 4.06-14.022 10.667-21.971 15.53 3.578-1.683 5.548-1.715 10.733-5.05-2.737 3.135-5.206 6.225-10.354 8.334-2.24 1.12-5.506 1.26-8.46-.253z" style="fill:#cbf69d;stroke-width:3.17906141" transform="translate(-354.045 -679.076)scale(1.9945)"/><path d="M415.54 651.2c1.429 1.458 2.857 2.113 4.286 4.375.803 2.054 1.696 6.429-.268 7.232-4.91-2.679-12.232.804-13.482-1.518 0-1.428 2.768-4.553 5.09-4.553 2.202.357 3.422-.983 6.16-.179-.953-1.25-.476-2.679-1.786-5.357z" style="fill:#4d6615;stroke-width:3.17906141" transform="translate(-354.045 -679.076)scale(1.9945)"/><path d="M354.06 715.1c26.278-18.214 37.073-13.762 61.272-45.157-.061-.842-.667-1.368-1.42-1.184-17.986 17.054-55.516 35.753-59.852 46.341z" style="fill:#3f5723;stroke-width:3.17906141" transform="translate(-354.045 -679.076)scale(1.9945)"/><path d="M408.57 667.18c-4.933-.69-10.252 2.817-13.304 7.679.9.38 6.55-4.889 8.214-4.018-1.756.62-1.683 3.133-3.66 5.268 9.571-2.08 7.389-6.7 12.32-8.393z" style="fill:#708d19;stroke-width:3.17906141" transform="translate(-354.045 -679.076)scale(1.9945)"/><path d="M419.69 662.67c-1.042 2.426-2.485 4.896-4.33 7.277-1.414.878-2.962-3.2-6.92-2.054-.685-.446-.833-1.786-.179-2.544.67-1.042 3.125.729 3.884-.179.105-.387-1.577-.952-1.428-1.562.893-1.072 4.42.848 5.49-.134.626-.67 1.608-1.206 3.483-.804" style="fill:#293f19;stroke-width:3.17906141" transform="translate(-354.045 -679.076)scale(1.9945)"/></g><path d="M345.91 742.62c3.978 6.46 8.208 11.627 11.932 19.382 0 .826.852 1.51 1.326.442.22-.258.49-.326.379-.82-.61-1.011-5.135-11.113-9.218-16.858-.842-1.22-2.946-3.451-4.23-3.472l-.19 1.01z" style="fill:url(#aj);stroke-width:3.17906141;filter:url(#ak)" transform="translate(-354.045 -679.076)scale(1.9945)"/><path d="M367.19 759.54c1.149 1.344 1.293 2.732 3.669 2.826 1.852 5.198 3.95 10.664 5.801 15.862l3.725 8.712 2.02 9.407-9.217-13.953-6.566-8.018.631-1.578 1.579-.884-1.39-6.755-4.545-5.367z" style="fill:url(#al);stroke-width:3.17906141" transform="translate(-354.045 -679.076)scale(1.9945)"/><path d="M375.36 777.72c-2.232-2.53-4.821-8.274-4.554-15.357 5.12-.774 8.631-4.583 7.054-10.893l4.464 1.964.268 10.268-2.678 6.786 2.678 5.536c-2.41.565-4.464 1.934-7.232 1.696z" style="fill:url(#am);stroke-width:3.17906141;filter:url(#an)" transform="translate(-354.045 -679.076)scale(1.9945)"/><path d="M379.41 766.15c-2.042 4.538-.87 9.523 2.177 9.686 3.214.761 5.893-.085 8.839-.127l10.102-3.914 4.42-3.662.883-5.177c-6.467 6.703-14.764 7.017-18.688 5.051-4.26-4.693-2.627-10.548-.548-15.33-.716 0-2.145.178-2.861.178l-1.642 11.238c-.715.715-1.966 1.341-2.682 2.057z" style="fill:url(#ao);stroke-width:3.17906141" transform="translate(-354.045 -679.076)scale(1.9945)"/><path d="M402.67 800.96c2.273-1.557 4.672-3.24 6.945-4.798-7.113-1.263-16.752-9.597-17.678-16.92l-10.985-3.788-5.809 2.02 13.258 11.869z" style="fill:url(#ap);stroke-width:3.17906141" transform="translate(-354.045 -679.076)scale(1.9945)"/><path d="M410.09 825.31c-4.464-6.22-10.714-14.583-11.25-22.679 1.637-1.071 3.006 3.393 7.857 4.821-1.25-2.053-1.429-3.214-2.143-4.821l-13.75-9.018-.536 2.857 9.822 15.982 6.518 11.696c.893.12 2.589 1.042 3.482 1.16z" style="fill:url(#aq);stroke-width:3.17906141" transform="translate(-354.045 -679.076)scale(1.9945)"/><path d="m402.14 825.76 3.214-1.34-2.5-6.339-15.982-23.125-8.393-12.32 4.554 17.231 10.714 12.946z" style="fill:url(#ar);stroke-width:3.17906141" transform="translate(-354.045 -679.076)scale(1.9945)"/><path d="m380.76 805.76 6.187 6.06 4.23-1.199-7.955-9.975-1.83.631z" style="fill:url(#as);stroke-width:3.17906141" transform="translate(-354.045 -679.076)scale(1.9945)"/><path d="M375.89 811.65c-.655 1.577.565 7.798-3.304 13.304l10 .179c.834-3.006-.833-11.726-.714-18.661z" style="fill:url(#at);stroke-width:3.17906141" transform="translate(-354.045 -679.076)scale(1.9945)"/><path d="M378.21 751.74c2.5 3.75 2.946 13.929-2.679 13.839 1.28 2.292 7.381 4.762 8.661 4.464-1.964-10.506.179-15.298 1.786-17.054-1.816.179-5.953-1.428-7.768-1.25z" style="fill:#cc4509;stroke-width:3.17906141;filter:url(#au)" transform="translate(-354.045 -679.076)scale(1.9945)"/><path d="M380.54 775.22c3.899 4.256 9.405 1.637 11.696 6.34.685-6.995 10.119-9.614 14.107-9.197l-2.59-3.84c-5.148 4.018-11.28 7.322-23.213 6.697z" style="fill:#cc4509;stroke-width:3.17906141;filter:url(#av)" transform="translate(-354.045 -679.076)scale(1.9945)"/><path d="M404.02 824.33c.536-7.798-22.321-30.952-29.196-46.964 11.488 4.226 26.815 24.167 29.375 22.321.179 1.964.357 4.464.536 6.429-3.453-4.137-9.316-9.167-12.768-10.268 6.399 8.78 11.905 24.524 16.786 28.75z" style="fill:#cc4509;stroke-width:3.17906141;filter:url(#aw)" transform="translate(-354.045 -679.076)scale(1.9945)"/><path d="M384.02 828.43c-.565-7.708 1.726-12.292 3.482-12.054 5.476-.595 11.935 9.435 12.054 13.482 1.012-1.369 3.095-3.095 4.107-4.464-3.125-2.947-13.036-22.054-20.893-26.25-.149 3.869.774 4.077 6.786 11.07-1.607 1.578-4.018.298-8.036-4.642-2.351 12.47 1.994 14.315-.357 21.07.774.596 2.083 1.191 2.857 1.787z" style="fill:#cc4509;stroke-width:3.17906141;filter:url(#ax)" transform="translate(-354.045 -679.076)scale(1.9945)"/><path d="M364.92 777.41c.716 9.323 8.313 20.54 11.238 26.643.547-2.483 4.504-2.567 3.536-4.23-6.945-6.903-11.301-21.382-14.773-22.413z" style="fill:#88a435;stroke-width:3.17906141" transform="translate(-354.045 -679.076)scale(1.9945)"/><path d="M345.85 750.15c3.978 6.46-2.887 3.342 7.97 7.713 0 .826 3.634-.341 4.107-1.41.221-.257 3.489-2.723 3.378-3.217-.61-1.01-1.441-7.085-7.457-5.458-.841-1.22-2.499.213-3.783.192-.063.337-1.772.526-1.835.863-4.45 2.37-1.217.28-2.38 1.317" style="fill:url(#ay);stroke-width:3.17906141;filter:url(#ak)" transform="matrix(.11272 .621 -.82016 .08535 936.297 560.545)"/><path d="M383.57 829.42c0 4.093-2.718 7.41-6.071 7.41-3.354 0-6.072-3.317-6.072-7.41s2.719-7.41 6.072-7.41 6.071 3.317 6.071 7.41" style="fill:url(#az);stroke-width:3.17906141" transform="matrix(2.229 0 0 1.9945 -442.624 -679.076)"/><path d="M411.61 830.67c0 3.107-2.318 5.625-5.179 5.625-2.86 0-5.178-2.518-5.178-5.625s2.318-5.625 5.178-5.625 5.179 2.518 5.179 5.625" style="fill:url(#aA);stroke-width:3.17906141" transform="matrix(2.5448 0 0 2.406 -578.725 -1021.492)"/><path d="M412.68 802.18c0 2.761-2.079 5-4.643 5s-4.643-2.239-4.643-5 2.079-5 4.643-5 4.643 2.239 4.643 5" style="fill:url(#aB);stroke-width:3.17906141" transform="matrix(2.1864 0 0 2.3507 -431.407 -965.148)"/><path d="M414.11 768.08c0 2.564-2.159 4.643-4.821 4.643s-4.822-2.079-4.822-4.643 2.159-4.643 4.822-4.643c2.662 0 4.821 2.079 4.821 4.643" style="fill:url(#aC);stroke-width:3.17906141" transform="matrix(2.253 0 0 2.4931 -460.397 -1062.958)"/><path d="M388.39 748.97c0 3.057-2.718 5.536-6.071 5.536-3.354 0-6.072-2.479-6.072-5.536s2.719-5.536 6.072-5.536 6.071 2.479 6.071 5.536" style="fill:url(#aD);stroke-width:3.17906141" transform="matrix(1.93584 0 0 2.02661 -330.904 -703.705)"/><path d="M275.45 569.86c3.988 11.071 10.833 33.125 12.411 34.286 1.101 4.107 1.488 2.5 2.232 3.75 3.095-.923-.417-4.345 2.59-4.91-5.06-.596-4.495-3.87-17.233-33.126z" style="fill:#687e33;stroke-width:3.17906141" transform="translate(-354.045 -679.076)scale(1.9945)"/><path d="M383.57 829.42c0 4.093-2.718 7.41-6.071 7.41-3.354 0-6.072-3.317-6.072-7.41s2.719-7.41 6.072-7.41 6.071 3.317 6.071 7.41" style="fill:url(#aE);stroke-width:3.17906141" transform="matrix(2.22905 0 0 1.7906 -778.075 -1131.768)"/><path d="M383.57 829.42c0 4.093-2.718 7.41-6.071 7.41-3.354 0-6.072-3.317-6.072-7.41s2.719-7.41 6.072-7.41 6.071 3.317 6.071 7.41" style="fill:url(#aF);stroke-width:3.17906141" transform="matrix(1.98026 0 0 1.70564 -641.053 -1103.466)"/><path d="M383.57 829.42c0 4.093-2.718 7.41-6.071 7.41-3.354 0-6.072-3.317-6.072-7.41s2.719-7.41 6.072-7.41 6.071 3.317 6.071 7.41" style="fill:url(#aG);stroke-width:3.17906141" transform="matrix(1.91805 0 0 1.5867 -572.622 -979.767)"/><path d="M383.57 829.42c0 4.093-2.718 7.41-6.071 7.41-3.354 0-6.072-3.317-6.072-7.41s2.719-7.41 6.072-7.41 6.071 3.317 6.071 7.41" style="fill:url(#aH);stroke-width:3.17906141" transform="matrix(2.18198 0 0 1.7429 -629.246 -1310.057)"/><path d="M383.57 829.42c0 4.093-2.718 7.41-6.071 7.41-3.354 0-6.072-3.317-6.072-7.41s2.719-7.41 6.072-7.41 6.071 3.317 6.071 7.41" style="fill:url(#aI);stroke-width:3.17906141" transform="matrix(2.19674 0 0 1.81498 -585.147 -1426.615)"/><path d="M383.57 829.42c0 4.093-2.718 7.41-6.071 7.41-3.354 0-6.072-3.317-6.072-7.41s2.719-7.41 6.072-7.41 6.071 3.317 6.071 7.41" style="fill:url(#aJ);stroke-width:3.17906141" transform="matrix(2.04995 0 0 1.69483 -464.199 -1297.391)"/><path d="M383.57 829.42c0 4.093-2.718 7.41-6.071 7.41-3.354 0-6.072-3.317-6.072-7.41s2.719-7.41 6.072-7.41 6.071 3.317 6.071 7.41" style="fill:url(#aK);stroke-width:3.17906141" transform="matrix(1.36077 0 0 1.16616 -189.337 -791.35)"/><g style="stroke-width:3.17906141"><path d="m481.59 502.52-3.22 5.619 2.336 6.314 14.395 10.038 1.01-8.145-5.619-6.187-2.525-5.43-6.124-2.399z" style="fill:url(#aL);stroke-width:3.17906141" transform="translate(-354.045 -679.076)scale(1.9945)"/><path d="m482.28 503.15 6.124 5.177 12.627-18.372-.947-2.336-3.157 1.389-14.142 12.69z" style="fill:url(#aM);stroke-width:3.17906141" transform="translate(-354.045 -679.076)scale(1.9945)"/><path d="M471.87 489.83c-1.052 4.367 9.26 10.691 18.056 4.672l-13.511 10.859-7.197-9.596z" style="fill:url(#aN);stroke-width:3.17906141" transform="translate(-354.045 -679.076)scale(1.9945)"/><path d="M464.23 503.91c3.388-.747 5.04-6.64 1.105-8.744 1.936-1.115 4.093-2.389 6.03-3.504-2.715 5.745 3.945 7.702 7.007 13.826-4.63-.442-9.512-.884-14.142-1.578z" style="fill:#cc4509;stroke-width:3.17906141" transform="translate(-354.045 -679.076)scale(1.9945)"/><path d="M495.8 485.22c1.28 9.286-22.976 16.071-18.661 18.482 1.042 2.202 2.083 3.155 3.125 4.732-.357-4.643 15.893-18.75 18.75-19.464-.804-1.13-2.41-2.619-3.214-3.75z" style="fill:#cc4509;stroke-width:3.17906141" transform="translate(-354.045 -679.076)scale(1.9945)"/><path d="m501.16 542.87 4.356-.631-.947-5.177-10.48-19.572.19 4.545z" style="fill:url(#aO);stroke-width:3.17906141" transform="translate(-354.045 -679.076)scale(1.9945)"/><path d="M502.42 490.78c-7.029 12.459.21 22.455 25.285 17.804-.758 2.062-3.188 4.945-3.946 7.008l-33.209-2.21c-2.189-.042-4.693-2.673-2.588-5.619q6.47-8.272 12.943-16.54z" style="fill:url(#aP);stroke-width:3.17906141" transform="translate(-354.045 -679.076)scale(1.9945)"/><path d="M505.01 535.16c-2.367-6.492 1.02-15.88 8.46-16.478-6.166-.4-12.585-1.242-18.751-1.641 3.136 5.597 7.155 12.522 10.291 18.12z" style="fill:url(#aQ);stroke-width:3.17906141" transform="translate(-354.045 -679.076)scale(1.9945)"/><path d="M502.2 542.24c2.5 1.34 5.744 2.716 9.583 4.144-3.643-3.855-10.863-21.1-16.696-30.179l-4.107-2.143c6.578 9.524 18.171 28.505 11.22 28.177z" style="fill:#cc4509;stroke-width:3.17906141" transform="translate(-354.045 -679.076)scale(1.9945)"/><path d="M495.73 517.99c11.406 2.189 22.581-.988 32.79 3.49-2.104-2.735-2.78-5.426-4.885-8.162-4.209 3.746-11.322-2.862-22.097-2.02-6.06-.8-11.49 1.052-11.364 2.146 2.357 3.662 3.704 4.294 5.556 4.546zM499.38 489.15c2.321 2.292-12.321 16.28-11.518 18.929 2.887-.536 12.113-17.232 18.304-20.089z" style="fill:#cc4509;stroke-width:3.17906141" transform="translate(-354.045 -679.076)scale(1.9945)"/><path d="m427.05 518.26 1.696-2.41-.714-6.25-.625-3.215 4.732-.179 9.286-.982 8.482-.803 5.625.625h17.678c2.381.402 4.048 1.339 5 2.41.357.536 2.277 2.545 1.607 3.215l.09 3.839-.447 4.018-3.84.982-7.053.714-10.089 2.857-12.857 1.608-6.786.535-3.303-.178-8.125-3.483z" style="fill:url(#aR);stroke-width:3.17906141" transform="translate(-354.045 -679.076)scale(1.9945)"/><path d="M478.81 517.3c-1.705-4.146-1.452-6.713 1.515-6.377 8.334 3.304 14.521 9.386 17.804 16.162 1.831 3.389.632 6.524 2.462 9.786l-14.773-14.963z" style="fill:#c7dc7f;stroke-width:3.17906141" transform="translate(-354.045 -679.076)scale(1.9945)"/><path d="M479.82 510.83c3.876 3.21-.046-4.818-2.136-6.5-2.44-1.675-5.414-.73-10.916-.353 5.637 1.54 9.937 3.532 13.051 6.853z" style="fill:#959aba;stroke-width:3.17906141" transform="translate(-354.045 -679.076)scale(1.9945)"/><path d="m482.59 521.56 16.429 23.571 3.214-2.59-9.91-14.463z" style="fill:#a06c45;stroke-width:3.17906141" transform="translate(-354.045 -679.076)scale(1.9945)"/><path d="M464.99 521.97c7.029-.779 12.29-3.136 16.162 1.452 4.398 3.725 15.413 12.474 16.358 24.76.4-.463 1.425-3.337 1.825-3.8-3.683-7.176-6.798-16.057-15.215-20.96-.842-2.168-3.767-5.283-8.019-5.178-3.767.926-7.85 1.979-11.112 3.725z" style="fill:#cc4509;stroke-width:3.17906141" transform="translate(-354.045 -679.076)scale(1.9945)"/><path d="M428.3 516.65c-2.455 1.458-2.812 3.14-2.679 4.375.417 3.824 3.78 2.961 6.072 3.84.878-8.275-5.298-1.727-3.393-8.215z" style="fill:#7aa203;stroke-width:3.17906141" transform="translate(-354.045 -679.076)scale(1.9945)"/><path d="M443.48 503.21c2.366 0 21.339.223 26.384 1.205l3.17.715c2.098 1.785-8.438-.268-9.33 1.25-.849.818 2.767 1.86 1.07 2.99-1.16.79-3.481-2.663-5.892-2.32-4.405.208-5.104-1.682-9.33-1.786-3.81.268-5.61 2.232-9.018 1.473-1.548.446-2.872 1.964-4.643 1.34-.73.163-.79.684-.715 1.562-.387.907 2.218 1.592 3.125 4.866-2.678-2.947-6.026-3.304-8.035-8.84l2.143-2.053z" style="fill:#e2fd72;stroke-width:3.17906141" transform="translate(-354.045 -679.076)scale(1.9945)"/><path d="M438.08 525.4c23.899.298 25.432-3.869 38.705-7.232-6.16-.417-17.411 5.06-23.571 4.91-6.845.566-12.753.774-15.134 2.322" style="fill:#7aa203;stroke-width:3.17906141" transform="translate(-354.045 -679.076)scale(1.9945)"/><path d="m424.07 490.34-.126 4.23 7.008 11.68c.947-1.936 2.904-1.473 5.114-.884l-7.703-11.68-2.778-3.472z" style="fill:#b1cfb7;stroke-width:3.17906141" transform="translate(-354.045 -679.076)scale(1.9945)"/><path d="M430.62 495.09c3.527 9.494 9.375 5.997 14.464 8.125-2.872 1.816-8.155.64-8.884 3.304-1.012-2.5-2.917-2.277-3.84-4.42-1.205-2.827-1.16-4.673-1.74-7.009z" style="fill:#959aba;stroke-width:3.17906141" transform="translate(-354.045 -679.076)scale(1.9945)"/><path d="M427.26 512.03c.79 2.168.86 4.225.417 5.067 3.2-2.715 5.57-.869 11.547 4.056 0-6.45-7.45-5.703-11.554-14.332-.105 1.978-.305 3.23-.41 5.208z" style="fill:#54773f;stroke-width:3.17906141" transform="translate(-354.045 -679.076)scale(1.9945)"/><path d="M427.8 512.94c.968 2 3.199-.168.063-5.935 1.158-.463 3.578 1.095 3.473-1.389.126-1.262-5.051-7.828-6.44-12.5-.61-.737-.463-2.042.631-1.831 1.663.294 4.904 11.575 8.208 12.438-.8-3.241-6.272-16.331-9.407-24.496l-2.4 17.74c1.958 5.325 2.337 9.576 5.872 15.974z" style="fill:#5e927c;stroke-width:3.17906141" transform="translate(-354.045 -679.076)scale(1.9945)"/><path d="M424.39 504.48c-3.199-16.373.673-13.048 1.01-19.572-.294-4.335-2.483-13.09-3.156-9.596l-4.167 12.879c.715 5.303 3.072 10.859 6.313 16.289z" style="fill:#56507c;stroke-width:3.17906141" transform="translate(-354.045 -679.076)scale(1.9945)"/><path d="M416.44 490.09c3.325 6.734 6.776 15.742 11.49 23.234-2.315-7.113-6.145-14.353-6.945-21.339-.715-6.271 2.862-10.649 1.642-16.541z" style="fill:#312749;stroke-width:3.17906141" transform="translate(-354.045 -679.076)scale(1.9945)"/><path d="M383.57 829.42c0 4.093-2.718 7.41-6.071 7.41-3.354 0-6.072-3.317-6.072-7.41s2.719-7.41 6.072-7.41 6.071 3.317 6.071 7.41" style="fill:url(#aS);stroke-width:3.17906141" transform="matrix(1.91805 0 0 1.5867 -148.511 -1019.059)"/><path d="M383.57 829.42c0 4.093-2.718 7.41-6.071 7.41-3.354 0-6.072-3.317-6.072-7.41s2.719-7.41 6.072-7.41 6.071 3.317 6.071 7.41" style="fill:url(#aT);stroke-width:3.17906141" transform="matrix(2.03539 0 0 1.5867 -121.586 -1030.128)"/><path d="M383.57 829.42c0 4.093-2.718 7.41-6.071 7.41-3.354 0-6.072-3.317-6.072-7.41s2.719-7.41 6.072-7.41 6.071 3.317 6.071 7.41" style="fill:url(#aU);stroke-width:3.17906141" transform="matrix(2.1048 0 0 1.8076 -91.668 -1151.514)"/><path d="M383.57 829.42c0 4.093-2.718 7.41-6.071 7.41-3.354 0-6.072-3.317-6.072-7.41s2.719-7.41 6.072-7.41 6.071 3.317 6.071 7.41" style="fill:url(#aV);stroke-width:3.17906141" transform="matrix(2.4261 0 0 2.0115 -263.207 -1252.396)"/><path d="M425.65 499.56c2.441 8.06 3.872 10.375 7.324 16.036-2.147-.673-3.789-2.61-5.683-6.187-1.494-3.662-1.851-6.819-1.641-9.85z" style="fill:#646b3f;stroke-width:3.17906141;filter:url(#aW)" transform="translate(-354.045 -679.076)scale(1.9945)"/><path d="M429.6 524.37c.947-1.063 2.083-1.715.568-4.135 3.82 1.052 5.398 3.903 9.092 5.24-3.22-.368-6.914.147-9.66-1.105" style="fill:#425810;stroke-width:3.17906141" transform="translate(-354.045 -679.076)scale(1.9945)"/><path d="M441.18 515.47c13.3 2.441 21.171 1.726 32.704.126-4.335 1.305-8.544 3.746-13.006 3.915-6.06 1.81-13.132-2.694-19.698-4.041" style="fill:#7aa203;stroke-width:3.17906141" transform="translate(-354.045 -679.076)scale(1.9945)"/><path d="M475.95 518.37c4.01.049 10.095 6.15 14.768 9.797 4.337 3.353 6.56 10.905 8.75 15.268 1.975-.837 2.467-3.346 2.232-5.446-2.431-8.049-8.398-8.268-14.018-17.232-2.263-.7-5.788-1.622-8.304-4.375-.892-.35-2.945-.471-3.428 1.988z" style="fill:#6a7527;stroke-width:3.17906141" transform="translate(-354.045 -679.076)scale(1.9945)"/></g><path d="M312.77 439.33c-.8 7.071-.21 14.458 2.525 19.887 1.221-.82-.841-6.818 1.2-6.25l1.768 3.725c1.347-3.283 1.241-7.83.252-10.228-1.2-4.02-3.346-5.072-4.167-8.84-1.536-.946-1.81.695-1.578 1.705z" style="fill:#c1ebab;stroke-width:3.17906141;filter:url(#aX)" transform="translate(-354.045 -679.076)scale(1.9945)"/></g></g></g></svg>